STARTFONT 2.1
COMMENT
COMMENT Converted from OpenType font "Q:\font stuff\winfont\WindsorSword.otf" by "otf2bdf 3.0".
COMMENT
FONT -FreeType-WindsorSword-Medium-R-Normal--52-520-72-72-P-361-ISO10646-1
SIZE 52 72 72
FONTBOUNDINGBOX 167 75 -55 -27
STARTPROPERTIES 19
FOUNDRY "FreeType"
FAMILY_NAME "WindsorSword"
WEIGHT_NAME "Medium"
SLANT "R"
SETWIDTH_NAME "Normal"
ADD_STYLE_NAME ""
PIXEL_SIZE 52
POINT_SIZE 520
RESOLUTION_X 72
RESOLUTION_Y 72
SPACING "P"
AVERAGE_WIDTH 361
CHARSET_REGISTRY "ISO10646"
CHARSET_ENCODING "1"
FONT_ASCENT 47
FONT_DESCENT 25
COPYRIGHT "N/A"
_OTF_FONTFILE "Q:\font stuff\winfont\WindsorSword.otf"
_OTF_PSNAME "WindsorSword"
ENDPROPERTIES
CHARS 186
STARTCHAR 0020
ENCODING 32
SWIDTH 153 0
DWIDTH 8 0
BBX 0 0 0 0
BITMAP
ENDCHAR
STARTCHAR 0021
ENCODING 33
SWIDTH 211 0
DWIDTH 11 0
BBX 18 23 4 0
BITMAP
0003C0
000780
000780
000F00
001E00
001C00
003800
007000
006000
00C000
01C000
018000
030000
060000
040000
080000
100000
000000
000000
000000
E00000
E00000
400000
ENDCHAR
STARTCHAR 0022
ENCODING 34
SWIDTH 288 0
DWIDTH 15 0
BBX 7 17 26 24
BITMAP
66
EE
EE
EE
EE
EE
EE
EE
EE
EE
EE
6E
64
64
64
64
64
ENDCHAR
STARTCHAR 0023
ENCODING 35
SWIDTH 807 0
DWIDTH 42 0
BBX 36 38 16 -1
BITMAP
0000700700
0000700E00
0000E00E00
0000E00E00
0000E01C00
0001C01C00
0001C01C00
0003C03800
0003803800
0003803800
0007807000
0007007000
0FFFFFFFF0
0FFFFFFFF0
000E00E000
000E00E000
001C01C000
001C01C000
001C01C000
003C038000
0038038000
0038038000
0038070000
0070070000
FFFFFFFF00
FFFFFFFF00
00E00E0000
00E01E0000
01C01C0000
01C01C0000
01C03C0000
0380380000
0380380000
0380780000
0700700000
0700700000
0700F00000
0E00E00000
ENDCHAR
STARTCHAR 0024
ENCODING 36
SWIDTH 423 0
DWIDTH 22 0
BBX 30 29 5 -1
BITMAP
00000FC0
00003138
0000C10C
00018204
00018600
00030400
00030800
00071800
00071000
00072000
0007E000
0007C000
00078000
0007C000
0003C000
0003C000
0007E000
0005E000
0009E000
0018E000
0010E000
0020E000
8020C000
8040C000
80C18000
40810000
21020000
1B0C0000
07F00000
ENDCHAR
STARTCHAR 0025
ENCODING 37
SWIDTH 596 0
DWIDTH 31 0
BBX 23 23 10 -1
BITMAP
0000C0
03C180
0C3180
183300
303300
703200
607600
E06400
E0CC00
618800
631800
1C1000
0031FC
002706
006E06
005C06
00D80E
00B80C
01B018
013030
033860
021D80
060200
ENDCHAR
STARTCHAR 0026
ENCODING 38
SWIDTH 615 0
DWIDTH 32 0
BBX 28 25 11 -1
BITMAP
00003C00
0000C800
00018800
00023000
00046000
0009C000
00178000
003E0000
007C0000
01F00000
07C00000
0F800010
3F800010
3E800030
7C801020
F8803040
F0802080
F0802180
F0404200
F0208C00
F019B000
F007C000
78040000
3C180000
0FE00000
ENDCHAR
STARTCHAR 0027
ENCODING 39
SWIDTH 173 0
DWIDTH 9 0
BBX 5 5 24 27
BITMAP
38
38
38
30
C0
ENDCHAR
STARTCHAR 0028
ENCODING 40
SWIDTH 269 0
DWIDTH 14 0
BBX 20 30 10 1
BITMAP
000030
0000C0
000180
000600
000C00
001800
003000
006000
00C000
01C000
038000
030000
070000
0E0000
0C0000
1C0000
180000
380000
300000
300000
600000
600000
600000
C00000
C00000
C00000
800000
800000
800000
800000
ENDCHAR
STARTCHAR 0029
ENCODING 41
SWIDTH 326 0
DWIDTH 17 0
BBX 20 30 7 1
BITMAP
000010
000010
000010
000010
000030
000030
000030
000060
000060
000060
0000C0
0000C0
0001C0
000380
000380
000700
000700
000E00
001C00
001C00
003800
007000
00E000
00C000
018000
070000
0C0000
180000
600000
800000
ENDCHAR
STARTCHAR 002A
ENCODING 42
SWIDTH 461 0
DWIDTH 24 0
BBX 18 21 24 20
BITMAP
006000
00E000
00E000
00E000
70E380
F8E780
FCE780
7EEF80
3FFE00
03F800
00E000
0FFC00
3EEF00
7EEF80
FCE7C0
F8E380
20E100
00E000
00E000
00C000
004000
ENDCHAR
STARTCHAR 002B
ENCODING 43
SWIDTH 826 0
DWIDTH 43 0
BBX 33 33 15 0
BITMAP
0001C00000
0001C00000
0001C00000
0001C00000
0001C00000
0001C00000
0001C00000
0001C00000
0001C00000
0001C00000
0001C00000
0001C00000
0001C00000
0001C00000
0001C00000
FFFFFFFF80
FFFFFFFF80
FFFFFFFF80
0001C00000
0001C00000
0001C00000
0001C00000
0001C00000
0001C00000
0001C00000
0001C00000
0001C00000
0001C00000
0001C00000
0001C00000
0001C00000
0001C00000
0001C00000
ENDCHAR
STARTCHAR 002C
ENCODING 44
SWIDTH 173 0
DWIDTH 9 0
BBX 5 5 4 -3
BITMAP
30
38
70
30
E0
ENDCHAR
STARTCHAR 002D
ENCODING 45
SWIDTH 288 0
DWIDTH 15 0
BBX 13 2 8 6
BITMAP
FFF8
FFF0
ENDCHAR
STARTCHAR 002E
ENCODING 46
SWIDTH 153 0
DWIDTH 8 0
BBX 3 3 5 0
BITMAP
E0
C0
80
ENDCHAR
STARTCHAR 002F
ENCODING 47
SWIDTH 326 0
DWIDTH 17 0
BBX 22 41 9 -4
BITMAP
00000C
00001C
000018
000038
000030
000070
000060
0000E0
0000C0
0000C0
000180
000180
000300
000300
000700
000600
000E00
000C00
001C00
001800
003800
003000
007000
006000
00E000
00C000
01C000
018000
038000
030000
070000
060000
0E0000
0C0000
1C0000
180000
380000
300000
700000
600000
E00000
ENDCHAR
STARTCHAR 0030
ENCODING 48
SWIDTH 480 0
DWIDTH 25 0
BBX 22 24 11 1
BITMAP
0001E0
000F18
003C0C
00F00C
01E00C
07C00C
0F800C
1F000C
1E001C
3E001C
7C003C
780038
780078
F00070
F000F0
E001E0
E001E0
C003C0
C00780
C00F00
C01E00
C03800
60F000
3FC000
ENDCHAR
STARTCHAR 0031
ENCODING 49
SWIDTH 480 0
DWIDTH 25 0
BBX 26 23 6 1
BITMAP
000003C0
00007F80
00078780
00180F00
00601E00
00C01E00
01803C00
01007C00
03007800
0000F000
0001F000
0001E000
0003C000
0007C000
00078000
000F0000
001F0000
001E0000
003C0000
007C0000
00FC0000
01FC0000
FFFFE000
ENDCHAR
STARTCHAR 0032
ENCODING 50
SWIDTH 480 0
DWIDTH 25 0
BBX 26 25 4 -4
BITMAP
0001F800
00060600
00180380
00300380
002003C0
004003C0
004003C0
004003C0
004007C0
00600F80
00001F80
00003F00
00007E00
0001F800
0007F000
000F8000
003C0000
00E00000
03000000
0C000000
30000000
7FF00080
61FE0100
803FC600
0007FC00
ENDCHAR
STARTCHAR 0033
ENCODING 51
SWIDTH 480 0
DWIDTH 25 0
BBX 30 33 -2 -10
BITMAP
00000FC0
00006070
0000C038
00008038
0001003C
0001803C
00008038
00000078
000000F0
000003E0
0000FF00
00001C00
00000700
00000380
000001C0
000001E0
000000E0
000000F0
000000F0
000000F0
000001F0
000001F0
000001E0
000003E0
000007C0
000007C0
00000F80
00001F00
C0003E00
40007800
3001E000
08078000
07F80000
ENDCHAR
STARTCHAR 0034
ENCODING 52
SWIDTH 480 0
DWIDTH 25 0
BBX 40 30 6 0
BITMAP
00000000FC
0000000F03
0000007000
0000018000
0000060000
000009E000
000033C000
000043C000
0000878000
00030F0000
00040F0000
00181E0000
00303C0000
00403C0000
0080780000
0100F00000
0600F00000
0C01E00000
1003C00000
2003C00000
7FFFFF8000
FFFFFF8000
000F000000
001E000000
001E000000
003C000000
0078000000
00F8000000
01F8000000
7FFFC00000
ENDCHAR
STARTCHAR 0035
ENCODING 53
SWIDTH 480 0
DWIDTH 25 0
BBX 33 33 -2 -9
BITMAP
0000000080
0000038180
00000FFF00
00001FFE00
0000303800
0000200000
0000600000
0000C00000
0000800000
0001800000
0001000000
0003FE0000
0006038000
000401C000
000001E000
000001E000
000001F000
000001F000
000001F000
000001F000
000001F000
000001E000
000003E000
000003E000
000007C000
00000FC000
00001F8000
80003F0000
80007E0000
4000F80000
3003E00000
0F7F000000
0080000000
ENDCHAR
STARTCHAR 0036
ENCODING 54
SWIDTH 480 0
DWIDTH 25 0
BBX 36 32 11 0
BITMAP
0000001FC0
000001E030
0000070000
00003C0000
0000F00000
0003C00000
0007800000
001E000000
003C000000
00F9F80000
01F60C0000
03EC040000
07D0060000
0FA0060000
0F60060000
1F400E0000
3E800E0000
3C801E0000
7D801C0000
78003C0000
F800380000
F000780000
F000700000
F000F00000
E001E00000
E003C00000
E007C00000
E00F800000
601E000000
703C000000
39F0000000
0780000000
ENDCHAR
STARTCHAR 0037
ENCODING 55
SWIDTH 480 0
DWIDTH 25 0
BBX 35 35 3 -11
BITMAP
0000E00020
0001FF0040
0003FFFF80
0007FFFF00
000C007E00
0008000C00
0010003800
0000007000
000000E000
000001C000
0000038000
0000070000
00000E0000
00003C0000
0000780000
0000F00000
0001E00000
0003C00000
0007C00000
000F800000
001F000000
001E000000
003C000000
0078000000
00F0000000
01E0000000
03E0000000
07C0000000
0780000000
0F00000000
1E00000000
3E00000000
7C00000000
F800000000
F000000000
ENDCHAR
STARTCHAR 0038
ENCODING 56
SWIDTH 480 0
DWIDTH 25 0
BBX 24 27 9 0
BITMAP
0000F8
000386
000E07
001C07
001C07
003C0F
003C1E
003C3C
003C70
003FC0
003E00
003E00
00FF00
038F00
0E0F00
1C0780
380780
700780
E00380
E00380
E00380
E00380
E00380
E00700
700E00
3C7C00
0FE000
ENDCHAR
STARTCHAR 0039
ENCODING 57
SWIDTH 480 0
DWIDTH 25 0
BBX 36 33 -4 -9
BITMAP
0000001FC0
0000007060
000001E070
0000038030
00000F0070
00001E0070
00003C0070
00007C0070
00007800F0
0000F000F0
0001E000F0
0001E001E0
0003C001E0
0003800BE0
00078013C0
00070017C0
0007002780
0007002F00
0006005F00
0006009E00
0006013C00
0003067800
0001B8F000
000041E000
000003C000
0000078000
00000E0000
00003C0000
0000700000
0001C00000
0007000000
E03C000000
3FC0000000
ENDCHAR
STARTCHAR 003A
ENCODING 58
SWIDTH 173 0
DWIDTH 9 0
BBX 7 10 5 0
BITMAP
06
0E
04
00
00
00
00
E0
E0
40
ENDCHAR
STARTCHAR 003B
ENCODING 59
SWIDTH 192 0
DWIDTH 10 0
BBX 10 12 4 -2
BITMAP
01C0
01C0
0180
0000
0000
0000
0000
1000
3800
3800
3000
E000
ENDCHAR
STARTCHAR 003C
ENCODING 60
SWIDTH 596 0
DWIDTH 31 0
BBX 24 25 12 4
BITMAP
000001
000007
00001F
0000FF
0003FF
000FF8
007FE0
01FF00
07FC00
3FF000
FF8000
FE0000
F00000
FE0000
FF8000
3FF000
07FC00
01FF00
007FE0
000FF8
0003FF
0000FF
00003F
000007
000001
ENDCHAR
STARTCHAR 003D
ENCODING 61
SWIDTH 1019 0
DWIDTH 53 0
BBX 40 16 17 8
BITMAP
FFFFFFFFFF
FFFFFFFFFF
FFFFFFFFFF
0000000000
0000000000
0000000000
0000000000
0000000000
0000000000
0000000000
0000000000
0000000000
0000000000
FFFFFFFFFF
FFFFFFFFFF
FFFFFFFFFF
ENDCHAR
STARTCHAR 003E
ENCODING 62
SWIDTH 596 0
DWIDTH 31 0
BBX 25 25 17 4
BITMAP
80000000
E0000000
F8000000
FF000000
FFC00000
1FF00000
07FE0000
00FF8000
003FE000
000FFC00
0001FF00
00007F80
00000F80
00003F80
0001FF00
0007FC00
003FF000
00FF8000
03FE0000
1FF80000
7FC00000
FF000000
FC000000
E0000000
80000000
ENDCHAR
STARTCHAR 003F
ENCODING 63
SWIDTH 326 0
DWIDTH 17 0
BBX 18 24 6 0
BITMAP
00FF00
030180
0601C0
0401C0
0801C0
0801C0
0801C0
0003C0
000780
000F00
003E00
00F000
038000
060000
0C0000
080000
000000
000000
000000
000000
000000
E00000
C00000
800000
ENDCHAR
STARTCHAR 0040
ENCODING 64
SWIDTH 980 0
DWIDTH 51 0
BBX 41 42 16 -7
BITMAP
0000FFF80000
0007FFFF0000
001F801FC000
007C0003E000
00F00000F000
01E000003800
038000001C00
070000000E00
0E0000000600
1E000C000700
1C007F0F0300
3800FF9E0300
3803F1DE0380
7003E0DE0380
7007C07C0380
700F807C0180
E00F007C0180
E01F007C0180
E01E00780180
E03E00780380
E03E00780380
E03C00F80300
E03C00F00300
E03C00F00700
E03C01F00600
E03C01F00E00
E03C03F01C00
F01E07F87800
701F9E7FF000
700FFC7FE000
7807F81F8000
380000000000
3C0000000000
1E0000000000
0F0000000000
078000000800
03C000003C00
01F00000F000
00FC0007E000
003FC0FF0000
000FFFFC0000
0000FFC00000
ENDCHAR
STARTCHAR 0041
ENCODING 65
SWIDTH 692 0
DWIDTH 36 0
BBX 107 52 -55 -17
BITMAP
0000000000000000000000000020
00000000000000000000000000C0
00000000000000000000000003C0
0000000000000000000000000F80
0000000000000000000000001F00
0000000000000000000000007F00
0000000000000000000000009E00
0000000000000000000000013E00
0000000000000000000000067C00
0000000000000000000000087800
000000000000000000000010F800
000000000000000000000020F000
000000000000000000000041E000
000000000000000000000183E000
000000000000000000000203C000
000000000000000000000407C000
0000000000000000000008078000
00000000000000000000100F0000
00000000000000000000201F0000
00000000000000000000401E0000
00000000000000000000803E0000
00000000000000000001003C0000
0000000000000001FFFFFFF80000
0000000000000000000400F80000
0000000000000000000800F00000
0000000000000000001001E00000
0000000000000000002001E00000
0000000000000000004003C00000
0000000000000000018007C00000
0000000000000000020007800000
000000000000000004000F000000
000000000000000008001F000000
000000000000000010003E000000
000000000000000020007E000000
00000000000000004000FF000000
0000000000000001803FFFFE0000
C000000000000002000000000000
4000000000000004000000000000
2000000000000018000000000000
2000000000000020000000000000
1000000000000040000000000000
0800000000000180000000000000
0400000000000200000000000000
0200000000000C00000000000000
0100000000001000000000000000
00C0000000006000000000000000
0020000000038000000000000000
001C0000000C0000000000000000
0003000000700000000000000000
0000E00007800000000000000000
00001FC3F8000000000000000000
0000003C00000000000000000000
ENDCHAR
STARTCHAR 0042
ENCODING 66
SWIDTH 692 0
DWIDTH 36 0
BBX 45 33 3 0
BITMAP
000007FFFFC0
0000003F01E0
0000003E00F0
0000003E00F8
0000007C00F8
000000F800F8
000000F800F8
000001F001F0
000003E001F0
000003E003F0
000007C007E0
000007800FC0
00000F803F80
00001F01FF00
00001FFFF800
00003E00F000
00007C003C00
00007C001E00
0000F8001F00
0001F0001F00
0001F0001F00
0003E0001F00
0007C0003F00
0007C0003F00
000F80003E00
001F00007E00
001F0000FC00
003E0001F800
007C0003F000
007C0007E000
00F8001F8000
03F0007E0000
FFFFFFF00000
ENDCHAR
STARTCHAR 0043
ENCODING 67
SWIDTH 711 0
DWIDTH 37 0
BBX 40 33 15 0
BITMAP
000003C000
00003E3C01
0001F00302
0007C00186
000F8000FC
003E00007C
007C000078
01F8000070
03F0000070
07E0000060
07C00000C0
0F800000C0
1F80000080
3F00000100
3E00000100
7E00000200
7C00000000
7C00000000
F800000000
F800000000
F800000800
F800001800
F000001000
F000002000
F000004000
7000008000
7000010000
3800020000
38000C0000
1C00180000
0E00600000
0783800000
00FC000000
ENDCHAR
STARTCHAR 0044
ENCODING 68
SWIDTH 750 0
DWIDTH 39 0
BBX 48 33 3 0
BITMAP
000007FFFF80
0000003F8070
0000003F0038
0000003E001C
0000007C000E
000000F8000E
000000F8000F
000001F0000F
000003E0000F
000003E0000F
000007C0000F
00000780000F
00000F80001F
00001F00001F
00001E00001F
00003E00003E
00007C00003E
00007800007E
0000F80000FC
0001F00000F8
0001E00001F8
0003E00003F0
0007C00007E0
000780000FE0
000F80001FC0
001F00003F80
001F00007F00
003E0000FE00
007E0003F800
007C000FF000
00FC003FC000
03FE03FE0000
FFFFFFC00000
ENDCHAR
STARTCHAR 0045
ENCODING 69
SWIDTH 711 0
DWIDTH 37 0
BBX 51 33 3 0
BITMAP
000007FFFFFFE0
0000003F0007E0
0000003E0003C0
0000003E0001C0
0000007C000180
000000F8000100
000000F8000300
000001F0008200
000003E0018400
000003E0010400
000007C0020800
00000780060000
00000F801C0000
00001F00780000
00001FFFF80000
00003E03F00000
00007C00E00000
00007800E00000
0000F800C00000
0001F000C00000
0001F000800000
0003E001004000
0007C001008000
0007C002008000
000F8000010000
001F0000020000
001F0000060000
003E00001C0000
007C0000380000
007C0000F80000
00F80003F00000
03F0001FF00000
FFFFFFFFE00000
ENDCHAR
STARTCHAR 0046
ENCODING 70
SWIDTH 615 0
DWIDTH 32 0
BBX 51 33 3 0
BITMAP
000007FFFFFFE0
0000003F0007E0
0000003E0003C0
0000003E0001C0
0000007C000180
000000F8000100
000000F8000300
000001F0008200
000003E0018400
000003E0010400
000007C0020800
000007800E0000
00000F801C0000
00001F00780000
00001FFFF80000
00003E03F00000
00007C00E00000
00007800E00000
0000F800C00000
0001F000C00000
0001F000800000
0003E001000000
0007C001000000
0007C002000000
000F8000000000
001F0000000000
001F0000000000
003E0000000000
007C0000000000
007C0000000000
00F80000000000
03F80000000000
FFFFC000000000
ENDCHAR
STARTCHAR 0047
ENCODING 71
SWIDTH 788 0
DWIDTH 41 0
BBX 44 42 12 -8
BITMAP
000000780000
000007870020
00003C00C040
0000F0006080
0003E0003F80
000780003F00
001F00001E00
003E00001E00
007C00001C00
00F800001800
01F000001800
03E000003000
07C000002000
0FC000002000
0F8000004000
1F0000008000
1F003FFFFFF0
3E00003FF800
3E00000FE000
7C00000FC000
7C00000F8000
7C00000F0000
7C00001F0000
7800003E0000
7800003C0000
7800007C0000
380000F80000
380001F00000
1C0003F00000
1C0007E00000
0E000FC00000
070030C00000
01C1C0800000
003E01000000
000002000000
000004000000
000008000000
C00010000000
400020000000
2000C0000000
180700000000
07F800000000
ENDCHAR
STARTCHAR 0048
ENCODING 72
SWIDTH 769 0
DWIDTH 40 0
BBX 60 33 3 0
BITMAP
000007FFFE1FFFF0
0000003F8000FC00
0000003F0001F800
0000003E0001F000
0000007C0003E000
000000F80003C000
000000F00007C000
000001F0000F8000
000003E0000F8000
000003C0001F0000
000007C0003E0000
00000780003E0000
00000F00007C0000
00001F0000F80000
00001FFFFFF80000
00003E0001F00000
00007C0003E00000
0000780003E00000
0000F80007C00000
0001F0000F800000
0001E0000F800000
0003E0001F000000
0007C0001E000000
000780003E000000
000F80007C000000
001F000078000000
001F0000F8000000
003E0001F0000000
007C0001F0000000
007C0003E0000000
00F80007C0000000
03F8000FC0000000
FFFFC3FFFE000000
ENDCHAR
STARTCHAR 0049
ENCODING 73
SWIDTH 365 0
DWIDTH 19 0
BBX 39 33 3 0
BITMAP
000007FFFE
0000003F80
0000003F00
0000003E00
0000007C00
000000F800
000000F800
000001F000
000003E000
000003E000
000007C000
0000078000
00000F8000
00001F0000
00001E0000
00003E0000
00007C0000
0000780000
0000F80000
0001F00000
0001E00000
0003E00000
0007C00000
0007C00000
000F800000
001F000000
001F000000
003E000000
007C000000
007C000000
00F8000000
03F8000000
FFFFC00000
ENDCHAR
STARTCHAR 004A
ENCODING 74
SWIDTH 403 0
DWIDTH 21 0
BBX 72 49 -29 -18
BITMAP
00000000000003FFFF
000000000000001FC0
000000000000001F00
000000000000003E00
000000000000003E00
000000000000007C00
00000000000000F800
00000000000000F800
00000000000001F000
00000000000003E000
00000000000003E000
00000000000007C000
000000000000078000
0000000000000F8000
0000000000001F0000
0000000000001E0000
0000000000003E0000
0000000000007C0000
000000000000780000
000000000000F80000
000000000001F00000
000000000001E00000
000000000003E00000
000000000007C00000
000000000007800000
00000000000F800000
00000000001F000000
00000000001E000000
00000000003E000000
00000000007C000000
00000000007C000000
0000000000F8000000
0000000001F0000000
0000000001F0000000
0000000003E0000000
0000000007C0000000
000000000780000000
000000000F80000000
000000001F00000000
800000001E00000000
C00000003C00000000
400000007800000000
20000000F000000000
10000001E000000000
080000078000000000
0600000E0000000000
018000380000000000
007001C00000000000
000FFE000000000000
ENDCHAR
STARTCHAR 004B
ENCODING 75
SWIDTH 730 0
DWIDTH 38 0
BBX 60 42 3 -7
BITMAP
0000000000003FC0
000007FFFE00F830
0000003F80038000
0000003E00060000
0000003E00180000
0000007C00300000
000000F800400000
000000F001800000
000001F002000000
000003E00C000000
000003C010000000
000007C060000000
0000078080000000
00000F0100000000
00001F0E00000000
00001FF000000000
00003C7000000000
00007C3C00000000
0000781E00000000
0000F01E00000000
0001F00F00000000
0001E00F00000000
0003E00F80000000
0007C00780000000
0007800780000000
000F8003C0000000
001F0003C0000000
001E0003E0000000
003E0001E0000000
007C0001E0000000
007C0001F0000000
00F80000F0000000
03F80000F8000000
FFFFC00078000000
000000007C000000
000000003C000000
000000001E000040
000000001F000080
0000000007800300
0000000003E00400
0000000000F87800
0000000000078000
ENDCHAR
STARTCHAR 004C
ENCODING 76
SWIDTH 1096 0
DWIDTH 57 0
BBX 88 45 5 -2
BITMAP
00000000000000001FFF00
0000000000000001E000E0
000000000000000E000018
0000000000000070000006
0000000000000180000001
0000000000000600000000
0000000000001800000000
0000000000003000000000
000000000000C000000000
0000000000018000000000
0000000000070000000000
00000000000E0000000000
00000000001C0000000000
0000000000380000000000
0000000000700000000000
0000000000E00000000000
0000000001E00000000000
0000000001C00000000000
0000000003800000000000
0000000007000000000000
000000000F000000000000
000000000E000000000000
000000001C000000000000
000000003C000000000000
0000000078000000000000
00000000F0000000000000
00000000F0000000000000
00000001E0000000000000
00000003C0000000000000
00000007C0000010000000
0000000780000010000000
8000000F80000020000000
8000001F00000040000000
8000003E000000C0000000
8000003E00000180000000
8000007C00000300000000
800000F800000700000000
C00001F800000E00000000
400003F000001C00000000
400007E000007C00000000
20000FE00000F800000000
10003FC00007F000000000
0C007F80003FF000000000
0703FFFFFFFFE000000000
00FFC00000000000000000
ENDCHAR
STARTCHAR 004D
ENCODING 77
SWIDTH 1153 0
DWIDTH 60 0
BBX 130 64 -18 -21
BITMAP
000000000000000000000000001FFF0000
00000000000000000000000001E000E000
0000000000000000000000000E00001C00
0000000000000000000000003000000200
000000000000000000000000C000000180
00000000000000000000000300000000C0
0000000000000000000000070000000000
00000000000000000000001E0000000000
00000000000000000000003C0000000000
00000000000000000000007C0000000000
0000000000000000000001F80000000000
0000000000000000000002F00000000000
0000000000007FFFE00005F00000000000
0000000000078003E0000BE00000000000
0000000000380001E00013E00000000000
0000000001C00001E00027C00000000000
0000000006000001E0004F800000000000
0000000008000003E0008F800000000000
0000000010000003E0011F000000000000
0000000020000007C0021E000000000000
000000004000000BC0043E000000000000
000000008000000BC0087C000000000000
0000000100000013C0107C000000000000
0000000100000023C020F8000000000000
0000000200000023C021F0000000000000
00000004000000478041F0000000000000
00000004000000878083E0000000000000
00000004000000878103C0000000000000
00000000000001078207C0000000000000
0000000000000207840F80000000000000
0000000000000207880F00000000000000
000000000000040F081F00000000000000
000000000000080F103E00000000000000
000000000000080F203E00000000000000
000000000000100F407C00000000000000
000000000000200F80F800000000000000
000000000000200F00F800000000000000
000000000000400F01F000000000000000
000000000000801E01F000000000000000
000000000000801C03E000000000000000
00000000000100180FE000000000000000
0000000000020010FFFF00000000000000
00000000000400000000C0000000000000
0000000000040000000000000000000000
0000000000080000000000000000000000
0000000000100000000000000000000000
0000000000200000000000000000000000
0000000000400000000000000000000000
0000000000800000000000000000000000
0000000001800000000000000000000000
0000000001000000000000000000000000
0000000002000000000000000000000000
8000000004000000000000000000000000
8000000008000000000000000000000000
8000000030000000000000000000000000
4000000040000000000000000000000000
2000000080000000000000000000000000
3000000300000000000000000000000000
1000000400000000000000000000000000
0C00001800000000000000000000000000
0600006000000000000000000000000000
0180038000000000000000000000000000
00601C0000000000000000000000000000
001FE00000000000000000000000000000
ENDCHAR
STARTCHAR 004E
ENCODING 78
SWIDTH 1000 0
DWIDTH 52 0
BBX 122 63 -13 -19
BITMAP
0000000000000000000000001FF00000
000000000000000000000001E00F0000
00000000000000000000000E0000C000
00000000000000000000003800003800
00000000000000000000006000000400
00000000000000000000018000000300
00000000000000000000030000000180
00000000000000000000040000000040
00000000000000000000080000000000
00000000000000000000100000000000
00000000000000000000200000000000
000000000001FFFE0000600000000000
00000000003C000F0000C00000000000
0000000001C000070001800000000000
00000000060000070001000000000000
000000001800000F0002000000000000
00000000200000170006000000000000
00000000C0000017000C000000000000
00000001800000270008000000000000
00000003000000270010000000000000
00000002000000470030000000000000
00000004000000870020000000000000
00000008000000870040000000000000
000000080000010700C0000000000000
00000010000001070080000000000000
00000010000002070180000000000000
00000010000004070100000000000000
00000000000004070200000000000000
00000000000008070600000000000000
00000000000008070400000000000000
00000000000010070C00000000000000
00000000000010070800000000000000
00000000000020071800000000000000
00000000000040071000000000000000
00000000000040072000000000000000
00000000000080076000000000000000
00000000000080074000000000000000
0000000000010007C000000000000000
00000000000200078000000000000000
00000000000200078000000000000000
00000000000400070000000000000000
00000000000800070000000000000000
00000000000800060000000000000000
00000000001000040000000000000000
00000000002000000000000000000000
00000000004000000000000000000000
00000000004000000000000000000000
00000000008000000000000000000000
00000000010000000000000000000000
00000000020000000000000000000000
00000000040000000000000000000000
00000000080000000000000000000000
80000000100000000000000000000000
40000000200000000000000000000000
40000000400000000000000000000000
20000000800000000000000000000000
10000003000000000000000000000000
08000004000000000000000000000000
04000018000000000000000000000000
03000060000000000000000000000000
00C00180000000000000000000000000
00380E00000000000000000000000000
000FF000000000000000000000000000
ENDCHAR
STARTCHAR 004F
ENCODING 79
SWIDTH 788 0
DWIDTH 41 0
BBX 37 32 15 0
BITMAP
000001F000
00003FFE00
0001F80300
0007C001C0
001F8000E0
007E0000E0
00FC000070
01F0000070
03E0000078
07C0000078
0F80000078
1F80000078
1F00000078
3E000000F8
3E000000F8
7C000000F8
7C000001F8
78000001F0
F8000003F0
F8000003E0
F8000007E0
7800000FC0
7800000F80
7800001F00
7800003E00
3800007C00
380000F800
1C0003E000
1C0007C000
0E001F0000
0380FC0000
00FFE00000
ENDCHAR
STARTCHAR 0050
ENCODING 80
SWIDTH 615 0
DWIDTH 32 0
BBX 47 33 3 0
BITMAP
000007FFFFC0
0000003F0070
0000003E0038
0000003E003C
0000007C003C
000000F8003E
000000F8003E
000001F0003E
000003E0003C
000003E0007C
000007C000FC
0000078001F8
00000F8003F0
00001F0007E0
00001E001F80
00003E01FE00
00007FFFC000
000078000000
0000F8000000
0001F0000000
0001E0000000
0003E0000000
0007C0000000
0007C0000000
000F80000000
001F00000000
001F00000000
003E00000000
007C00000000
007C00000000
00F800000000
03F800000000
FFFFC0000000
ENDCHAR
STARTCHAR 0051
ENCODING 81
SWIDTH 807 0
DWIDTH 42 0
BBX 36 41 16 -8
BITMAP
00003FF800
0001E00600
0007800300
001E000380
007C0001C0
01F80001E0
03F00000E0
07E00000E0
0FC00000F0
0F800000F0
1F000000F0
3F000000F0
3E000000F0
7C000001F0
7C000001F0
78000001F0
F8000001F0
F8000003E0
F8000003E0
F0000007C0
F0000007C0
F000000F80
F000001F80
F000001F00
F000003E00
7000007C00
700000F800
380001F000
380003C000
1800078000
0C001E0000
0600700000
01E7C00000
061E000000
1803000000
6000C00040
0000700080
00003C0100
00001F0600
000007F800
000000C000
ENDCHAR
STARTCHAR 0052
ENCODING 82
SWIDTH 807 0
DWIDTH 42 0
BBX 84 59 4 -27
BITMAP
00000FFFFF800000000000
0000007F00F00000000000
0000007E00780000000000
0000007C003C0000000000
000000F8003C0000000000
000001F0003C0000000000
000001F0007C0000000000
000003E0007C0000000000
000003C0007C0000000000
000007C000FC0000000000
00000F8001F80000000000
00000F8001F00000000000
00001F0003E00000000000
00003E000FC00000000000
00003E001F000000000000
00007C00FC000000000000
0000FFFFE0000000000000
0000F80C00000000000000
0001F00300000000000000
0003F00380000000000000
0003E001C0000000000000
0007C000E0000000000000
0007C000F0000000000000
000F800070000000000000
001F000078000000000000
001F000078000000000000
003E00003C000000000000
007C00003C000000000000
007C00003E000000000000
00F800001E000000000000
01F000001E000000000000
03F000001F000000000000
0FF800000F000000000000
E00700000F000000000000
000000000F800000000000
0000000007800000000000
0000000007C00000000000
0000000007C00000000000
0000000003C00000000000
0000000003E00000000000
0000000001E00000000000
0000000001F00000000000
0000000000F00000000000
0000000000780000000000
0000000000780000000000
00000000003C0000000000
00000000001E0000000000
00000000000E0000000000
0000000000070000000000
0000000000038000000000
000000000001C000000000
000000000000E000000000
0000000000007800000000
0000000000001C00000000
0000000000000F00000010
0000000000000380000060
00000000000000F0000180
000000000000001C000E00
0000000000000003FFF000
ENDCHAR
STARTCHAR 0053
ENCODING 83
SWIDTH 826 0
DWIDTH 43 0
BBX 75 52 10 -10
BITMAP
00000000000003FC0000
0000000000001C038000
00000000000060006000
000000000001C0001000
00000000000380000800
00000000000700000400
00000000000E00000200
00000000001C00000100
00000000003C00000080
00000000003800000040
00000000007800000020
0000000000F000000000
0000000000F000000000
0000000001E000000000
0000000001E000000000
0000000001E000000000
0000000003C000000000
0000000003C000000000
0000000003C000000000
00000000078000000000
00000000078000000000
000FF000078000000000
00700C000F0000000000
00C003000F0000000000
030000800F0000000000
040000001F0000000000
080000001E0000000000
100000001E0000000000
300000001E0000000000
200000003C0000000000
600000003C0000000000
400000003C0000000000
40000000780000000000
80000000780000000000
80000000780000000000
80000000F00000000000
80000000F00000000000
80000000E00000000000
80000001E00000000000
80000001C00000000000
40000003C00000000000
40000003800000000000
40000007000000000000
2000000E000000000000
1000000E000000000000
10000018000000000000
08000030000000000000
04000060000000000000
03000180000000000000
00800600000000000000
00701800000000000000
000FE000000000000000
ENDCHAR
STARTCHAR 0054
ENCODING 84
SWIDTH 846 0
DWIDTH 44 0
BBX 53 33 14 0
BITMAP
000FFFFFFFFFF8
001FC0078003F0
003F000F8001E0
003C001F0000E0
0070001F0000C0
0060003E000180
00C0007C000180
0180007C000100
010000F8000200
020001F0000200
040001F0000400
040003E0000800
080003C0000800
100007C0001000
10000F80000000
00000F00000000
00001F00000000
00003E00000000
00003C00000000
00007C00000000
0000F800000000
0000F000000000
0001F000000000
0003E000000000
0003E000000000
0007C000000000
00078000000000
000F8000000000
001F0000000000
001F0000000000
003F0000000000
00FF0000000000
FFFFFE00000000
ENDCHAR
STARTCHAR 0055
ENCODING 85
SWIDTH 692 0
DWIDTH 36 0
BBX 45 33 15 0
BITMAP
00FFFFC3FFF8
0007F0001E00
0007C0001800
000F80001000
000F80001000
001F00002000
003E00004000
003E00004000
007C00008000
00F800010000
00F800010000
01F000020000
03E000040000
03E000040000
07C000080000
0F8000100000
0F8000100000
1F0000200000
1E0000400000
3E0000400000
7C0000800000
7C0001000000
F80001000000
F80002000000
F00004000000
F00004000000
F00008000000
F00010000000
F00020000000
780040000000
3C0080000000
1E0300000000
07FC00000000
ENDCHAR
STARTCHAR 0056
ENCODING 86
SWIDTH 576 0
DWIDTH 30 0
BBX 60 40 22 0
BITMAP
00000000001FF800
0000000000E00700
00000000030000C0
000000000C000020
0000000030000010
0000000040000000
0000000080000000
0000000300000000
7FFFE00400000000
07F0000800000000
03E0001000000000
03C0002000000000
03C0004000000000
07C0008000000000
0780010000000000
0780020000000000
0780040000000000
0780080000000000
0F00100000000000
0F00200000000000
0F00400000000000
0F00800000000000
1F01000000000000
1E02000000000000
1E04000000000000
1E08000000000000
1E08000000000000
3C10000000000000
3C20000000000000
3C40000000000000
3C80000000000000
3D00000000000000
7A00000000000000
7C00000000000000
7C00000000000000
7800000000000000
7000000000000000
E000000000000000
C000000000000000
8000000000000000
ENDCHAR
STARTCHAR 0057
ENCODING 87
SWIDTH 884 0
DWIDTH 46 0
BBX 119 48 -8 -8
BITMAP
000000000000000000000001FFC000
00000000000000000000003C003C00
0000000000000000000001C0000380
000000000000000000000600000060
000000000000000000001800000018
000000000000000000006000000004
000000000000000000018000000002
00000000FFFFC02000020000000000
000000000FE00060000C0000000000
0000000007C0006000100000000000
00000000078000C000200000000000
00000000078001C000400000000000
00000000078003C001800000000000
000000000F0003C003000000000000
000000000F0007C004000000000000
000000000F001F8008000000000000
000000000F00178010000000000000
000000001F00278020000000000000
000000001E004F8040000000000000
000000001E008F8080000000000000
000000001E010F0100000000000000
000000001E010F0200000000000000
000000003E020F0600000000000000
000000003C041F0400000000000000
000000003C081E0800000000000000
000000003C101E1000000000000000
000000003C201E2000000000000000
000000007C401E4000000000000000
0000000078403EC000000000000000
0000000078803C8000000000000000
0000000079003D0000000000000000
000000007A003E0000000000000000
00000000F4003C0000000000000000
00000000F8007C0000000000000000
00000000F000780000000000000000
00000000E000700000000000000000
00000000C000600000000000000000
800000018000600000000000000000
800000010000C00000000000000000
800000020000800000000000000000
4000000C0000000000000000000000
400000100000000000000000000000
200000200000000000000000000000
100000C00000000000000000000000
080003000000000000000000000000
06000C000000000000000000000000
01C070000000000000000000000000
007F80000000000000000000000000
ENDCHAR
STARTCHAR 0058
ENCODING 88
SWIDTH 884 0
DWIDTH 46 0
BBX 56 33 7 0
BITMAP
00003FFFF07FFF
000000FC0007F0
000000F8000780
00000078000600
00000078000C00
0000007C001800
0000007C002000
0000003C004000
0000003C008000
0000003E030000
0000001E040000
0000001E080000
0000001E100000
0000001F600000
0000000F800000
0000000F000000
0000000F800000
0000000F800000
00000017800000
00000067800000
00000087C00000
00000107C00000
00000203C00000
00000C03C00000
00001003E00000
00002003E00000
00004001E00000
00018001E00000
00030001F00000
000E0000F00000
003E0000F00000
01FE0001F80000
FFFFE07FFFF800
ENDCHAR
STARTCHAR 0059
ENCODING 89
SWIDTH 634 0
DWIDTH 33 0
BBX 98 61 -10 -13
BITMAP
00000000000000000000018000
000000000000000000003E7C00
00000000000000000000C00300
00000000000000000003000080
00000000000000000004000040
00000000000000000018000040
00000000000000000020000000
000000000000000000C0000000
00000000000000000100000000
00000000000000000200000000
00000000000000000400000000
00000000000000001800000000
00000000000000002000000000
00000000000000004000000000
000000007FFFC0008000000000
0000000007E000010000000000
0000000003C000020000000000
0000000003C000040000000000
0000000003C000080000000000
0000000003C000100000000000
0000000003C000200000000000
0000000003C000400000000000
0000000003C000400000000000
0000000003C000800000000000
0000000003C001000000000000
0000000003C002000000000000
0000000003C004000000000000
0000000003C008000000000000
0000000003C010000000000000
0000000003C020000000000000
0000000003C040000000000000
0000000003C080000000000000
0000000003C080000000000000
0000000003C100000000000000
0000000003C200000000000000
0000000003C400000000000000
0000000003C800000000000000
0000000003D000000000000000
0000000003E000000000000000
0000000003C000000000000000
0000000003C000000000000000
00000000038000000000000000
00000000030000000000000000
00000000020000000000000000
00000000040000000000000000
00000000080000000000000000
00000000100000000000000000
00000000200000000000000000
00000000400000000000000000
00000000800000000000000000
00000001000000000000000000
00000002000000000000000000
0000000C000000000000000000
00000010000000000000000000
80000020000000000000000000
800000C0000000000000000000
40000100000000000000000000
20000400000000000000000000
18001800000000000000000000
0601C000000000000000000000
01FE0000000000000000000000
ENDCHAR
STARTCHAR 005A
ENCODING 90
SWIDTH 576 0
DWIDTH 30 0
BBX 55 43 6 -10
BITMAP
00001FFFFFF000
00003F0007E000
00007C000FC000
000070001F8000
0000C0007F0000
00018000FC0000
00010001F80000
00020003F00000
00040007E00000
0004001FC00000
0008003F000000
0000007E000000
000000FC000000
000003F8000000
000007F0000000
00000FC0000000
000FFFFFF00000
00003F00000000
00007E00000000
0000FC00000000
0003F800000000
0007F000000000
000FC000000000
001F8000000000
007F0000000000
00FE0000000000
01FC0000000000
03F00000000000
07E00000000000
1FC00000000000
3F800000000000
7E000000000000
FC000000000000
0F000000000002
00F00000000004
000F0000000008
0000E000000010
00001C00000010
00000380000020
00000078000040
0000000F000180
00000000F80600
000000000FF800
ENDCHAR
STARTCHAR 005B
ENCODING 91
SWIDTH 576 0
DWIDTH 30 0
BBX 9 49 23 -16
BITMAP
FF80
FF80
F000
F000
F000
F000
F000
F000
F000
F000
F000
F000
F000
F000
F000
F000
F000
F000
F000
F000
F000
F000
F000
F000
F000
F000
F000
F000
F000
F000
F000
F000
F000
F000
F000
F000
F000
F000
F000
F000
F000
F000
F000
F000
F000
F000
F000
FF80
FF80
ENDCHAR
STARTCHAR 005C
ENCODING 92
SWIDTH 826 0
DWIDTH 43 0
BBX 23 42 22 -9
BITMAP
E00000
600000
700000
300000
380000
180000
1C0000
0C0000
0E0000
060000
070000
030000
038000
018000
01C000
00C000
00E000
006000
007000
007000
003000
003800
001800
001C00
000C00
000E00
000600
000700
000300
000380
000180
0001C0
0000C0
0000E0
000060
000070
000030
000038
000018
00001C
00000C
00000E
ENDCHAR
STARTCHAR 005D
ENCODING 93
SWIDTH 576 0
DWIDTH 30 0
BBX 9 49 22 -16
BITMAP
FF80
FF80
0780
0780
0780
0780
0780
0780
0780
0780
0780
0780
0780
0780
0780
0780
0780
0780
0780
0780
0780
0780
0780
0780
0780
0780
0780
0780
0780
0780
0780
0780
0780
0780
0780
0780
0780
0780
0780
0780
0780
0780
0780
0780
0780
0780
0780
FF80
FF80
ENDCHAR
STARTCHAR 005E
ENCODING 94
SWIDTH 269 0
DWIDTH 14 0
BBX 13 9 8 17
BITMAP
0030
0070
00F0
01F0
0330
0E30
1830
6010
8008
ENDCHAR
STARTCHAR 005F
ENCODING 95
SWIDTH 538 0
DWIDTH 28 0
BBX 31 2 -1 -9
BITMAP
FFFFFFFE
FFFFFFFE
ENDCHAR
STARTCHAR 0060
ENCODING 96
SWIDTH 692 0
DWIDTH 36 0
BBX 7 9 7 17
BITMAP
C0
E0
E0
60
60
30
08
04
02
ENDCHAR
STARTCHAR 0061
ENCODING 97
SWIDTH 461 0
DWIDTH 24 0
BBX 26 15 6 1
BITMAP
003F3C00
01F17800
03C0F000
0F81F000
1F01E000
3E03C000
7C03C000
78078040
F80F0080
F01F0100
F02E0200
E04E0400
608C1800
730E6000
0C078000
ENDCHAR
STARTCHAR 0062
ENCODING 98
SWIDTH 346 0
DWIDTH 18 0
BBX 33 32 7 1
BITMAP
0000003F80
000001C000
0000060000
00001C0000
0000300000
0000E00000
0001800000
0007000000
000E000000
001C000000
0038000000
0070000000
00E0000000
01C0000000
0380000000
0780000000
0F30000000
1ECC000000
1D06000000
3E06000000
7C06000000
7806000000
F00E000000
F00E000000
E01C000000
E038000000
E038000000
C070000000
C0E0000000
C1C0000000
6700000000
1800000000
ENDCHAR
STARTCHAR 0063
ENCODING 99
SWIDTH 346 0
DWIDTH 18 0
BBX 16 15 7 0
BITMAP
001C
01F2
03C7
0F0F
1E06
3C00
7800
7800
F001
F002
E004
E008
E030
E0C0
7F00
ENDCHAR
STARTCHAR 0064
ENCODING 100
SWIDTH 461 0
DWIDTH 24 0
BBX 56 34 6 2
BITMAP
000000000003F0
00000000003F8F
0000000001F000
00000000078000
000000000C0000
00000000300000
00000000C00000
00000001000000
00000006000000
00000008000000
00000010000000
00000020000000
000000C0000000
00000180000000
00000300000000
00000600000000
00000C00000000
00001C00000000
001C3800000000
00FF7000000000
03E1E000000000
07C1E000000000
0F01C000000000
1E038000000000
3E038000000000
7C070000000000
780F0080000000
701E0100000000
F02E0200000000
F04E0400000000
608E0800000000
610E1000000000
320FE000000000
0C078000000000
ENDCHAR
STARTCHAR 0065
ENCODING 101
SWIDTH 326 0
DWIDTH 17 0
BBX 18 15 6 1
BITMAP
007E00
018F00
070F00
0E0E00
1C0C00
381800
78E000
770040
F80080
E00100
E00600
F00800
703000
3DC000
020000
ENDCHAR
STARTCHAR 0066
ENCODING 102
SWIDTH 365 0
DWIDTH 19 0
BBX 42 27 3 0
BITMAP
00000007F800
0000003C0700
000000F00080
000003C00040
000007800000
00000F000000
00001E000000
00003C000000
000078000000
0000F0000000
0000E0000000
0001E0000000
0003C0000000
003FFFE00000
000780000000
000700000000
000F00000000
000E00000000
001E00000000
003C00000000
003800000000
007800000000
007000000000
00F000000000
01E000000000
03F000000000
FFFF80000000
ENDCHAR
STARTCHAR 0067
ENCODING 103
SWIDTH 442 0
DWIDTH 23 0
BBX 59 33 -22 -15
BITMAP
0000000000000FE0
0000000000003820
0000000000F0E000
000000000789C000
000000001E078000
000000003C078000
00000000700F0000
00000000E00E0000
00000001C01C0000
00000003C03C0000
0000000380780000
0000000780700000
0000000700E00000
0000000701E00000
0000000703C00000
000000038F800000
00000003F7800000
000000000F000000
000000000E000000
000000001C000000
000000003C000000
0000000038000000
0000000070000000
00000000E0000000
C0000001C0000000
40000003C0000000
2000000780000000
1000000E00000000
0800001C00000000
0600007800000000
018001E000000000
00780F8000000000
0007E00000000000
ENDCHAR
STARTCHAR 0068
ENCODING 104
SWIDTH 519 0
DWIDTH 27 0
BBX 69 48 -2 -9
BITMAP
0000000000000FF800
000000000000F00700
0000000000030000C0
00000000000C000020
000000000030000018
0000000000C0000000
000000000380000000
000000000600000000
000000000C00000000
000000001800000000
000000003000000000
00000000E000000000
00000001C000000000
000000038000000000
000000070000000000
0000000E0000000000
0000001C0000000000
000000180000000000
000000300000000000
000000700000000000
000000E00000000000
000001C00000000000
000003C00000000000
000003800000000000
0000071C0000000000
00000F670000000000
00001F838000000000
00001E038000000000
00003C038000000000
000078038000000000
0000F0038000000000
0000E0078000000000
0001C0078000000000
0003C00F0000000000
0007800F0000000000
0007001E0000000000
000F003C0000000000
001F00380000000000
07FFF0780000000000
000000F00000000000
000001C00000000000
000003800000000000
000007000000000000
00001C000000000000
800038000000000000
C000E0000000000000
300700000000000000
0FF800000000000000
ENDCHAR
STARTCHAR 0069
ENCODING 105
SWIDTH 326 0
DWIDTH 17 0
BBX 21 23 3 0
BITMAP
000018
000038
000030
000000
000000
000000
000000
000000
000000
01FF00
000700
000700
000F00
000E00
001E00
003C00
003800
007800
007000
00F000
01E000
03E000
FFFE00
ENDCHAR
STARTCHAR 006A
ENCODING 106
SWIDTH 307 0
DWIDTH 16 0
BBX 47 37 -24 -14
BITMAP
000000000004
00000000000E
00000000000E
000000000000
000000000000
000000000000
000000000000
000000000000
000000000300
000000003CC0
0000000000E0
0000000001E0
0000000001C0
0000000003C0
000000000780
000000000700
000000000F00
000000000E00
000000001E00
000000003C00
000000003800
000000007800
000000007000
00000000E000
00000001E000
00000001C000
000000038000
000000078000
0000000F0000
0000001E0000
0000003C0000
C00000780000
400000E00000
300003C00000
0C0007000000
03803C000000
007FE0000000
ENDCHAR
STARTCHAR 006B
ENCODING 107
SWIDTH 576 0
DWIDTH 30 0
BBX 68 51 3 -9
BITMAP
0000000000001FF000
000000000001E00E00
00000000000E000180
000000000038000060
0000000000E0000010
000000000380000000
000000000F00000000
000000001C00000000
000000007800000000
00000000F000000000
00000001C000000000
000000038000000000
000000070000000000
0000000E0000000000
0000001C0000000000
000000380000000000
000000700000000000
000000E00000000000
000001E00000000000
000003C00000000000
000007800000000000
00000F000000000000
00000E000000000000
00001C000000000000
00003C000000000000
000078000000000000
0000F0004000000000
0000F007BC00000000
0001E0180200000000
0003C0600000000000
0003C0800000000000
000783000000000000
000F0C000000000000
000FF0000000000000
001E60000000000000
003C30000000000000
003C18000000000000
00781C000000000000
00701C000000000000
00F01E000000000000
01E00E000000000000
03E00E000000000000
FFFE0E000000000000
00000F000000000000
00000F000000000000
000007000000000000
000007000000000000
000003800000000000
000003801000000000
000001E06000000000
0000007F8000000000
ENDCHAR
STARTCHAR 006C
ENCODING 108
SWIDTH 326 0
DWIDTH 17 0
BBX 65 39 3 0
BITMAP
000000000000FFC000
00000000000F803800
000000000078000600
0000000001C0000180
000000000700000080
000000001C00000000
000000003800000000
00000000E000000000
00000001C000000000
000000038000000000
0000000E0000000000
0000001C0000000000
000000380000000000
000000700000000000
000000E00000000000
000001C00000000000
000003C00000000000
000007800000000000
000007000000000000
00000E000000000000
00001C000000000000
000038000000000000
000078000000000000
0000F0000000000000
0000E0000000000000
0001C0000000000000
0003C0000000000000
000380000000000000
000700000000000000
000E00000000000000
001E00000000000000
001C00000000000000
003800000000000000
007800000000000000
007000000000000000
00F000000000000000
01E000000000000000
03E000000000000000
FFFE00000000000000
ENDCHAR
STARTCHAR 006D
ENCODING 109
SWIDTH 750 0
DWIDTH 39 0
BBX 41 28 3 -12
BITMAP
000001E01C00
00FF0E306700
000390388300
0007A0390380
0007C03A0380
000F803C0780
001F00780780
001E00F00780
003C00E00F00
003801E00F00
007803C01F00
00F003801E00
00F007803C00
01E00F803C00
7FFCFFF07800
00000000F000
00000001E000
00000001C000
000000038000
000000070000
0000001E0000
0000003C0000
800000700000
C00001C00000
600007800000
10001C000000
0E00F0000000
01FF00000000
ENDCHAR
STARTCHAR 006E
ENCODING 110
SWIDTH 500 0
DWIDTH 26 0
BBX 36 26 -5 -10
BITMAP
0000000380
0001FF0CE0
0000073060
0000074070
00000F8070
00000F00F0
00001E00F0
00003C00E0
00003801E0
00007803E0
00007003C0
0000F007C0
0001E00780
0003E00F00
00FFFC1E00
0000003C00
0000007800
000000F000
000001E000
000003C000
0000070000
00001E0000
C000380000
6000E00000
1C07000000
07F8000000
ENDCHAR
STARTCHAR 006F
ENCODING 111
SWIDTH 403 0
DWIDTH 21 0
BBX 19 16 7 1
BITMAP
003E00
01E180
0780C0
1F00E0
3E00E0
7C00E0
7801E0
F001E0
F003C0
E003C0
E00780
E00F00
E01E00
607800
3BE000
040000
ENDCHAR
STARTCHAR 0070
ENCODING 112
SWIDTH 461 0
DWIDTH 24 0
BBX 61 34 -32 -18
BITMAP
00000000000603E0
0000000000798430
000000000001D038
000000000001E038
000000000003C038
0000000000078038
0000000000070078
00000000000F0070
00000000001E00F0
00000000001C01E0
00000000003C03C0
00000000007C0780
0000000000F40F00
0000000000E23E00
0000000001E1F800
0000000003C00000
0000000007800000
000000000F000000
000000000F000000
000000001E000000
000000003C000000
0000000078000000
0000000070000000
00000000E0000000
00000001C0000000
0000000380000000
8000000700000000
8000001E00000000
4000003800000000
2000007000000000
100001C000000000
0C000F0000000000
0380780000000000
007FC00000000000
ENDCHAR
STARTCHAR 0071
ENCODING 113
SWIDTH 423 0
DWIDTH 22 0
BBX 32 34 -4 -19
BITMAP
00000380
00001E47
0000783E
0001E07C
0003C078
00078078
000F80F0
000F00E0
001E01E0
001E03C0
001C0780
001C0F80
001C1F00
001C2E00
000FDE00
00001C00
00003800
00007800
00007000
0000E000
0001C000
00038000
00030000
00060000
000C0000
00180000
00300000
00600000
00800000
01000000
06000000
18000000
20000000
C0000000
ENDCHAR
STARTCHAR 0072
ENCODING 114
SWIDTH 346 0
DWIDTH 18 0
BBX 33 21 3 0
BITMAP
0000000F80
0000007000
000000C000
0000030000
0000060000
0000080000
007E100000
0087600000
0007C00000
0007800000
000F000000
001E000000
001E000000
003C000000
0038000000
0078000000
0070000000
00F0000000
01E0000000
03E0000000
FFFE000000
ENDCHAR
STARTCHAR 0073
ENCODING 115
SWIDTH 250 0
DWIDTH 13 0
BBX 25 24 1 -4
BITMAP
0001F800
00060400
000C0200
00180100
00380080
00700000
00700000
00700000
00700000
00700000
00780000
00780000
00780000
00780000
00780000
00380000
00380000
00380000
00380000
80300000
80700000
40600000
20C00000
1F000000
ENDCHAR
STARTCHAR 0074
ENCODING 116
SWIDTH 365 0
DWIDTH 19 0
BBX 44 33 9 1
BITMAP
00000000FFE0
000000070010
000000380000
000000C00000
000003800000
00000E000000
000018000000
000070000000
0000C0000000
000380000000
000700000000
000E00000000
001C00000000
003800000000
007000000000
00E000000000
01C000000000
038000000000
078000000000
7FFF00000000
0F0000000000
1E0000000000
1C0000000000
380000000000
780080000000
700100000000
F00200000000
E00400000000
E00800000000
E01000000000
E06000000000
718000000000
1E0000000000
ENDCHAR
STARTCHAR 0075
ENCODING 117
SWIDTH 519 0
DWIDTH 27 0
BBX 27 15 8 0
BITMAP
0E000000
F3803800
03807800
03807000
0780E000
0F01C020
1E03C040
1C078080
3C0F0080
781F0100
702E0200
704E0400
608E1800
73066000
0C038000
ENDCHAR
STARTCHAR 0076
ENCODING 118
SWIDTH 423 0
DWIDTH 22 0
BBX 27 19 9 1
BITMAP
000001E0
00000600
00001800
00002000
FF004000
07008000
07010000
0F010000
0E020000
1E040000
3C080000
38080000
70100000
70200000
E0400000
E0800000
E1000000
72000000
1C000000
ENDCHAR
STARTCHAR 0077
ENCODING 119
SWIDTH 634 0
DWIDTH 33 0
BBX 37 18 9 0
BITMAP
0000000078
0000000080
0000000300
0400700600
FB00F00C00
0380E00800
0781C01000
0703C02000
0F03804000
1E0700C000
3C0F008000
380E010000
781E020000
703C040000
705C0C0000
708C180000
730E200000
1C07C00000
ENDCHAR
STARTCHAR 0078
ENCODING 120
SWIDTH 461 0
DWIDTH 24 0
BBX 43 24 -3 -4
BITMAP
000000000F80
000000007060
000000008000
000000030000
000000040000
000000080000
0007E0100000
0038E0200000
0000F0400000
000071800000
000072000000
00007C000000
000078000000
000078000000
000078000000
0000B8040000
000138080000
000638080000
00083C100000
00101C200000
00600E400000
018003800000
070000000000
F80000000000
ENDCHAR
STARTCHAR 0079
ENCODING 121
SWIDTH 384 0
DWIDTH 20 0
BBX 65 36 -23 -18
BITMAP
00000000000001F800
0000000000000E0600
000000000000300180
00000001FFE0400080
000000003C01800000
000000003802000000
000000003804000000
000000003808000000
000000003810000000
000000003820000000
000000003840000000
0000000038C0000000
000000003980000000
000000003900000000
000000003A00000000
000000003E00000000
000000003C00000000
000000003800000000
000000003000000000
000000002000000000
000000002000000000
000000004000000000
000000008000000000
000000010000000000
000000010000000000
000000020000000000
000000040000000000
800000080000000000
800000100000000000
400000200000000000
200000400000000000
300000800000000000
180003000000000000
06000C000000000000
038070000000000000
007F80000000000000
ENDCHAR
STARTCHAR 007A
ENCODING 122
SWIDTH 538 0
DWIDTH 28 0
BBX 42 26 1 -12
BITMAP
0003F0018000
000C7FFE0000
003007F00000
002000600000
004001800000
004003000000
00000E000000
000018000000
007FFFFC0000
000060000000
0000C0000000
000380000000
000700000000
000C00000000
001800000000
006000000000
01C000000000
030000000000
1C0000000000
FFE000000040
00FE00000080
001FC0000100
0003F8000200
00007F000C00
00001FF07000
000003FFC000
ENDCHAR
STARTCHAR 007B
ENCODING 123
SWIDTH 500 0
DWIDTH 26 0
BBX 19 50 15 -11
BITMAP
0001E0
000FC0
001C00
003800
007000
007000
00E000
00E000
00E000
00E000
00E000
00E000
00E000
00E000
00E000
00E000
00E000
00E000
00E000
01C000
01C000
038000
070000
3E0000
F00000
E00000
7E0000
0F0000
038000
01C000
01C000
00E000
00E000
00E000
00E000
00E000
00E000
00E000
00E000
00E000
00E000
00E000
00E000
00E000
007000
007000
003800
001E00
000F80
0007E0
ENDCHAR
STARTCHAR 007C
ENCODING 124
SWIDTH 365 0
DWIDTH 19 0
BBX 2 49 14 -10
BITMAP
C0
C0
C0
C0
C0
C0
C0
C0
C0
C0
C0
C0
C0
C0
C0
C0
C0
C0
C0
C0
C0
C0
C0
C0
C0
C0
C0
C0
C0
C0
C0
C0
C0
C0
C0
C0
C0
C0
C0
C0
C0
C0
C0
C0
C0
C0
C0
C0
C0
ENDCHAR
STARTCHAR 007D
ENCODING 125
SWIDTH 500 0
DWIDTH 26 0
BBX 19 50 16 -11
BITMAP
F00000
7E0000
070000
038000
01C000
01C000
00E000
00E000
00E000
00E000
00E000
00E000
00E000
00E000
00E000
00E000
00E000
00E000
00E000
007000
007000
003800
001C00
000F80
0001E0
0000E0
000FC0
001E00
003800
007000
007000
00E000
00E000
00E000
00E000
00E000
00E000
00E000
00E000
00E000
00E000
00E000
00E000
00E000
01C000
01C000
038000
070000
3E0000
F80000
ENDCHAR
STARTCHAR 007E
ENCODING 126
SWIDTH 288 0
DWIDTH 15 0
BBX 12 5 9 17
BITMAP
0010
7E30
7FE0
83C0
8000
ENDCHAR
STARTCHAR 00A0
ENCODING 160
SWIDTH 480 0
DWIDTH 25 0
BBX 0 0 0 0
BITMAP
ENDCHAR
STARTCHAR 00A2
ENCODING 162
SWIDTH 326 0
DWIDTH 17 0
BBX 18 19 13 8
BITMAP
000600
000600
003F00
01F980
03B1C0
0F31C0
1E6080
3CC000
38C000
718000
730000
F31800
E63800
7C3000
7CE000
1F8000
300000
300000
600000
ENDCHAR
STARTCHAR 00A3
ENCODING 163
SWIDTH 653 0
DWIDTH 34 0
BBX 49 26 1 0
BITMAP
0000000003E000
000000007C1E00
00000001800180
00000002000000
00000004000000
00000008000000
00000030000000
00000030000000
00000060000000
0000FFFF800000
00000180000000
00000300000000
00000700000000
00000E00000000
00000C00000000
00001C00000000
00003800000000
00007800080000
0000F000100000
8001E000100000
8001E000200000
8007C000C00000
400F8001C00000
303F8007800000
1FFF003F800000
01FFFFFF000000
ENDCHAR
STARTCHAR 00A8
ENCODING 168
SWIDTH 346 0
DWIDTH 18 0
BBX 9 4 35 18
BITMAP
6180
E380
E380
0100
ENDCHAR
STARTCHAR 00B1
ENCODING 177
SWIDTH 557 0
DWIDTH 29 0
BBX 23 22 3 2
BITMAP
003800
003800
003800
003800
003800
003800
FFFFFE
FFFFFE
FFFFFE
003800
003800
003800
003800
003800
003800
003800
000000
000000
000000
FFFFFE
FFFFFE
FFFFFE
ENDCHAR
STARTCHAR 00B4
ENCODING 180
SWIDTH 230 0
DWIDTH 12 0
BBX 7 9 35 18
BITMAP
06
0E
0E
0C
08
10
20
40
80
ENDCHAR
STARTCHAR 00B5
ENCODING 181
SWIDTH 576 0
DWIDTH 30 0
BBX 25 34 4 -10
BITMAP
F801E000
F801E000
F801E000
F801E000
F801E000
F801E000
F801E000
F801E000
F801E000
F801E000
F801E000
F801E000
F801E000
F803E000
F803E000
F803E000
F803E000
F805E080
F805E080
F809E080
B818F180
BE70F300
9FE07F00
8FC03E00
C0000000
C0000000
C0000000
E0000000
E0000000
E0000000
F0000000
F0000000
F0000000
F0000000
ENDCHAR
STARTCHAR 00B7
ENCODING 183
SWIDTH 384 0
DWIDTH 20 0
BBX 12 10 -1 -11
BITMAP
0100
02E0
0030
0030
0020
0060
00C0
0180
8700
7800
ENDCHAR
STARTCHAR 00C4
ENCODING 196
SWIDTH 692 0
DWIDTH 36 0
BBX 113 58 -55 -17
BITMAP
00000000000000000000000000C380
00000000000000000000000001C780
00000000000000000000000001C300
000000000000000000000000000000
000000000000000000000000000000
000000000000000000000000000000
000000000000000000000000002000
00000000000000000000000000C000
00000000000000000000000003C000
0000000000000000000000000F8000
0000000000000000000000001F0000
0000000000000000000000007F0000
0000000000000000000000009E0000
0000000000000000000000013E0000
0000000000000000000000067C0000
000000000000000000000008780000
000000000000000000000010F80000
000000000000000000000020F00000
000000000000000000000041E00000
000000000000000000000183E00000
000000000000000000000203C00000
000000000000000000000407C00000
000000000000000000000807800000
00000000000000000000100F000000
00000000000000000000201F000000
00000000000000000000401E000000
00000000000000000000803E000000
00000000000000000001003C000000
0000000000000001FFFFFFF8000000
0000000000000000000400F8000000
0000000000000000000800F0000000
0000000000000000001001E0000000
0000000000000000002001E0000000
0000000000000000004003C0000000
0000000000000000018007C0000000
000000000000000002000780000000
000000000000000004000F00000000
000000000000000008001F00000000
000000000000000010003E00000000
000000000000000020007E00000000
00000000000000004000FF00000000
0000000000000001803FFFFE000000
C00000000000000200000000000000
400000000000000400000000000000
200000000000001800000000000000
200000000000002000000000000000
100000000000004000000000000000
080000000000018000000000000000
040000000000020000000000000000
0200000000000C0000000000000000
010000000000100000000000000000
00C000000000600000000000000000
002000000003800000000000000000
001C0000000C000000000000000000
000300000070000000000000000000
0000E0000780000000000000000000
00001FC3F800000000000000000000
0000003C0000000000000000000000
ENDCHAR
STARTCHAR 00C5
ENCODING 197
SWIDTH 692 0
DWIDTH 36 0
BBX 112 64 -55 -18
BITMAP
000000000000000000000000003C
00000000000000000000000000C6
0000000000000000000000000083
0000000000000000000000000101
0000000000000000000000000101
0000000000000000000000000101
0000000000000000000000000183
00000000000000000000000000C6
0000000000000000000000000078
0000000000000000000000000000
0000000000000000000000000000
0000000000000000000000000000
0000000000000000000000000060
00000000000000000000000001C0
0000000000000000000000000380
0000000000000000000000000F80
0000000000000000000000003F00
0000000000000000000000005F00
000000000000000000000000BE00
0000000000000000000000033C00
0000000000000000000000047C00
0000000000000000000000087800
000000000000000000000010F000
000000000000000000000061F000
000000000000000000000081E000
000000000000000000000103E000
000000000000000000000203C000
0000000000000000000004078000
00000000000000000000080F8000
00000000000000000000100F0000
00000000000000000000201F0000
00000000000000000000401E0000
00000000000000000000803C0000
00000000000000000001007C0000
0000000000000001FFFFFFF80000
0000000000000000000400F80000
0000000000000000000800F00000
0000000000000000001001E00000
0000000000000000002003E00000
000000000000000000C003C00000
0000000000000000010007800000
0000000000000000020007800000
000000000000000004000F000000
000000000000000008001F000000
000000000000000010003E000000
000000000000000020007E000000
0000000000000000C000FE000000
8000000000000001003FFFFC0000
8000000000000002000000000000
4000000000000004000000000000
2000000000000018000000000000
2000000000000020000000000000
1000000000000040000000000000
0800000000000180000000000000
0400000000000200000000000000
0200000000000C00000000000000
0100000000003000000000000000
00C000000000C000000000000000
0020000000030000000000000000
00180000000C0000000000000000
0007000000700000000000000000
0000E00007800000000000000000
00001FC3F8000000000000000000
0000003C00000000000000000000
ENDCHAR
STARTCHAR 00C7
ENCODING 199
SWIDTH 711 0
DWIDTH 37 0
BBX 40 44 15 -11
BITMAP
000003E001
00003E1E03
0001F00386
0007C001FE
000F8000FC
003E000078
007C000078
00F8000070
03F0000070
07E0000060
07C00000C0
0F800000C0
1F80000080
3F00000100
3E00000100
7E00000200
7C00000000
7C00000000
FC00000000
F800000000
F800000C00
F800000800
F000001000
F000003000
F000006000
700000C000
7000018000
7800030000
3800040000
1C00180000
0C00200000
0701C00000
01FE000000
0020000000
0040000000
0038000000
000C000000
000C000000
000C000000
0018000000
0038000000
2070000000
11C0000000
0E00000000
ENDCHAR
STARTCHAR 00C8
ENCODING 200
SWIDTH 711 0
DWIDTH 37 0
BBX 51 44 3 1
BITMAP
00000000700000
00000000700000
00000000700000
00000000380000
00000000180000
000000000C0000
00000000060000
00000000030000
00000000008000
00000000000000
00000000000000
000007FFFFFFE0
0000003F0007E0
0000003E0003C0
0000003E0001C0
0000007C000180
000000F8000100
000000F8000300
000001F0008200
000003E0018400
000003E0010400
000007C0020800
00000780060000
00000F801C0000
00001F00780000
00001FFFF80000
00003E03F00000
00007C00E00000
00007800E00000
0000F800C00000
0001F000C00000
0001F000800000
0003E001004000
0007C001008000
0007C002008000
000F8000010000
001F0000020000
001F0000060000
003E00001C0000
007C0000380000
007C0000F80000
00F80003F00000
03F0001FF00000
FFFFFFFFE00000
ENDCHAR
STARTCHAR 00C9
ENCODING 201
SWIDTH 711 0
DWIDTH 37 0
BBX 51 44 3 1
BITMAP
00000000003000
00000000007000
00000000007000
00000000007000
00000000006000
0000000000C000
00000000010000
00000000020000
00000000040000
00000000000000
00000000000000
000007FFFFFFE0
0000003F0007E0
0000003E0003C0
0000003E0001C0
0000007C000180
000000F8000100
000000F8000300
000001F0008200
000003E0018400
000003E0010400
000007C0020800
00000780060000
00000F801C0000
00001F00780000
00001FFFF80000
00003E03F00000
00007C00E00000
00007800E00000
0000F800C00000
0001F000C00000
0001F000800000
0003E001004000
0007C001008000
0007C002008000
000F8000010000
001F0000020000
001F0000060000
003E00001C0000
007C0000380000
007C0000F80000
00F80003F00000
03F0001FF00000
FFFFFFFFE00000
ENDCHAR
STARTCHAR 00CA
ENCODING 202
SWIDTH 711 0
DWIDTH 37 0
BBX 51 44 3 1
BITMAP
00000000004000
0000000000C000
0000000001C000
0000000003C000
00000000064000
000000001C6000
00000000306000
00000000C02000
00000001002000
00000000000000
00000000000000
000007FFFFFFE0
0000003F0007E0
0000003E0003C0
0000003E0001C0
0000007C000180
000000F8000100
000000F8000300
000001F0008200
000003E0018400
000003E0010400
000007C0020800
00000780060000
00000F801C0000
00001F00780000
00001FFFF80000
00003E03F00000
00007C00E00000
00007800E00000
0000F800C00000
0001F000C00000
0001F000800000
0003E001004000
0007C001008000
0007C002008000
000F8000010000
001F0000020000
001F0000060000
003E00001C0000
007C0000380000
007C0000F80000
00F80003F00000
03F0001FF00000
FFFFFFFFE00000
ENDCHAR
STARTCHAR 00CB
ENCODING 203
SWIDTH 711 0
DWIDTH 37 0
BBX 51 39 3 1
BITMAP
00000000186000
0000000038E000
0000000038E000
0000000030C000
00000000000000
00000000000000
000007FFFFFFE0
0000003F0007E0
0000003E0003C0
0000003E0001C0
0000007C000180
000000F8000100
000000F8000300
000001F0008200
000003E0018400
000003E0010400
000007C0020800
00000780060000
00000F801C0000
00001F00780000
00001FFFF80000
00003E03F00000
00007C00E00000
00007800E00000
0000F800C00000
0001F000C00000
0001F000800000
0003E001004000
0007C001008000
0007C002008000
000F8000010000
001F0000020000
001F0000060000
003E00001C0000
007C0000380000
007C0000F80000
00F80003F00000
03F0001FF00000
FFFFFFFFE00000
ENDCHAR
STARTCHAR 00CC
ENCODING 204
SWIDTH 365 0
DWIDTH 19 0
BBX 39 44 3 1
BITMAP
0000006000
0000007000
0000007000
0000003000
0000003000
0000000800
0000000400
0000000200
0000000000
0000000000
0000000000
000007FFFE
0000003F80
0000003F00
0000003E00
0000007C00
000000F800
000000F800
000001F000
000003E000
000003E000
000007C000
0000078000
00000F8000
00001F0000
00001E0000
00003E0000
00007C0000
0000780000
0000F80000
0001F00000
0001E00000
0003E00000
0007C00000
0007C00000
000F800000
001F000000
001F000000
003E000000
007C000000
007C000000
00F8000000
03F8000000
FFFFC00000
ENDCHAR
STARTCHAR 00CD
ENCODING 205
SWIDTH 365 0
DWIDTH 19 0
BBX 39 44 3 1
BITMAP
0000000018
0000000018
0000000038
0000000038
0000000030
0000000060
00000000C0
0000000100
0000000200
0000000000
0000000000
000007FFFE
0000003F80
0000003F00
0000003E00
0000007C00
000000F800
000000F800
000001F000
000003E000
000003E000
000007C000
0000078000
00000F8000
00001F0000
00001E0000
00003E0000
00007C0000
0000780000
0000F80000
0001F00000
0001E00000
0003E00000
0007C00000
0007C00000
000F800000
001F000000
001F000000
003E000000
007C000000
007C000000
00F8000000
03F8000000
FFFFC00000
ENDCHAR
STARTCHAR 00CE
ENCODING 206
SWIDTH 365 0
DWIDTH 19 0
BBX 39 44 3 1
BITMAP
0000000030
0000000070
00000000F0
00000001B0
0000000330
0000000C30
0000001830
0000006010
0000000000
0000000000
0000000000
000007FFFE
0000003F80
0000003F00
0000003E00
0000007C00
000000F800
000000F800
000001F000
000003E000
000003E000
000007C000
0000078000
00000F8000
00001F0000
00001E0000
00003E0000
00007C0000
0000780000
0000F80000
0001F00000
0001E00000
0003E00000
0007C00000
0007C00000
000F800000
001F000000
001F000000
003E000000
007C000000
007C000000
00F8000000
03F8000000
FFFFC00000
ENDCHAR
STARTCHAR 00CF
ENCODING 207
SWIDTH 365 0
DWIDTH 19 0
BBX 38 39 3 1
BITMAP
0000001860
00000038E0
00000038E0
0000003040
0000000000
0000000000
000007FFFC
0000003F00
0000003E00
0000007C00
000000F800
000000F800
000001F000
000003E000
000003E000
000007C000
00000F8000
00000F8000
00001F0000
00001E0000
00003E0000
00007C0000
0000780000
0000F80000
0001F00000
0001E00000
0003E00000
0007C00000
0007800000
000F800000
001F000000
001F000000
003E000000
007C000000
007C000000
00F8000000
01F0000000
03F0000000
FFFF800000
ENDCHAR
STARTCHAR 00D1
ENCODING 209
SWIDTH 1000 0
DWIDTH 52 0
BBX 122 63 -13 -19
BITMAP
0000000000000000000000001FF00000
000000000000000000000001E00F0000
00000000000000000000000E0000C000
00000000000000000000003800003800
00000000000000000702006000000400
00000000000000000FC4018000000300
000000000000000019FC030000000180
00000000000000001078040000000040
00000000000000000000080000000000
00000000000000000000100000000000
00000000000000000000200000000000
000000000001FFFE0000600000000000
00000000003C000F0000C00000000000
0000000001C000070001800000000000
00000000060000070001000000000000
000000001800000F0002000000000000
00000000200000170006000000000000
00000000C0000017000C000000000000
00000001800000270008000000000000
00000003000000270010000000000000
00000002000000470030000000000000
00000004000000870020000000000000
00000008000000870040000000000000
000000080000010700C0000000000000
00000010000001070080000000000000
00000010000002070180000000000000
00000010000004070100000000000000
00000000000004070200000000000000
00000000000008070600000000000000
00000000000008070400000000000000
00000000000010070C00000000000000
00000000000010070800000000000000
00000000000020071800000000000000
00000000000040071000000000000000
00000000000040072000000000000000
00000000000080076000000000000000
00000000000080074000000000000000
0000000000010007C000000000000000
00000000000200078000000000000000
00000000000200078000000000000000
00000000000400070000000000000000
00000000000800070000000000000000
00000000000800060000000000000000
00000000001000040000000000000000
00000000002000000000000000000000
00000000004000000000000000000000
00000000004000000000000000000000
00000000008000000000000000000000
00000000010000000000000000000000
00000000020000000000000000000000
00000000040000000000000000000000
00000000080000000000000000000000
80000000100000000000000000000000
40000000200000000000000000000000
40000000400000000000000000000000
20000000800000000000000000000000
10000003000000000000000000000000
08000004000000000000000000000000
04000018000000000000000000000000
03000060000000000000000000000000
00C00180000000000000000000000000
00380E00000000000000000000000000
000FF000000000000000000000000000
ENDCHAR
STARTCHAR 00D2
ENCODING 210
SWIDTH 788 0
DWIDTH 41 0
BBX 37 45 15 0
BITMAP
0000020000
0000070000
0000070000
0000030000
0000038000
0000018000
000000C000
0000002000
0000001000
0000000000
0000000000
000007F800
0000380600
0001C00180
00078000C0
001E0000E0
007C0000E0
00F8000070
01F0000070
03E0000078
07C0000078
0F80000078
1F80000078
1F000000F8
3E000000F8
3E000000F8
7C000000F8
7C000001F8
7C000001F0
78000003F0
F8000003F0
F8000007E0
F8000007E0
F800000FC0
7800000F80
7800001F80
7800003F00
7800007E00
380000FC00
380001F000
1C0003E000
0C000F8000
06001F0000
0380F80000
00FFC00000
ENDCHAR
STARTCHAR 00D3
ENCODING 211
SWIDTH 788 0
DWIDTH 41 0
BBX 37 45 15 1
BITMAP
0000000300
0000000700
0000000700
0000000600
0000000C00
0000000800
0000001000
0000002000
000000C000
0000000000
0000000000
000007F800
0000380600
0001C00180
00078000C0
001E0000E0
007C0000E0
00F8000070
01F0000070
03E0000078
07C0000078
0F80000078
1F80000078
1F000000F8
3E000000F8
3E000000F8
7C000000F8
7C000001F8
7C000001F0
78000003F0
F8000003F0
F8000007E0
F8000007E0
F800000FC0
7800000F80
7800001F80
7800003F00
7800007E00
380000FC00
380001F000
1C0003E000
0C000F8000
06001F0000
0380F80000
00FFC00000
ENDCHAR
STARTCHAR 00D4
ENCODING 212
SWIDTH 788 0
DWIDTH 41 0
BBX 37 45 15 1
BITMAP
0000000200
0000000600
0000000E00
0000001E00
0000007600
000000C200
0000018300
0000060300
0000080100
0000000000
0000000000
000007F800
0000380600
0001C00180
00078000C0
001E0000E0
007C0000E0
00F8000070
01F0000070
03E0000078
07C0000078
0F80000078
1F80000078
1F000000F8
3E000000F8
3E000000F8
7C000000F8
7C000001F8
7C000001F0
78000003F0
F8000003F0
F8000007E0
F8000007E0
F800000FC0
7800000F80
7800001F80
7800003F00
7800007E00
380000FC00
380001F000
1C0003E000
0C000F8000
06001F0000
0380F80000
00FFC00000
ENDCHAR
STARTCHAR 00D5
ENCODING 213
SWIDTH 788 0
DWIDTH 41 0
BBX 37 40 15 2
BITMAP
000001F080
000003FF80
0000021F00
0000000000
0000000000
0000000000
000007F800
0000380600
0001C00180
00078000C0
001E0000E0
007C0000E0
00F8000070
01F0000070
03E0000078
07C0000078
0F80000078
1F80000078
1F000000F8
3E000000F8
3E000000F8
7C000000F8
7C000001F8
7C000001F0
78000003F0
F8000003F0
F8000007E0
F8000007E0
F800000FC0
7800000F80
7800001F80
7800003F00
7800007E00
380000FC00
380001F000
1C0003E000
0C000F8000
06001F0000
0380F80000
00FFC00000
ENDCHAR
STARTCHAR 00D6
ENCODING 214
SWIDTH 788 0
DWIDTH 41 0
BBX 37 40 15 0
BITMAP
0000008200
000001C700
000001C700
0000018600
0000000000
0000000000
000007F800
0000380600
0001C00180
00078000C0
001E0000E0
007C0000E0
00F8000070
01F0000070
03E0000078
07C0000078
0F80000078
1F80000078
1F000000F8
3E000000F8
3E000000F8
7C000000F8
7C000001F8
7C000001F0
78000003F0
F8000003F0
F8000007E0
F8000007E0
F800000FC0
7800000F80
7800001F80
7800003F00
7800007E00
380000FC00
380001F000
1C0003E000
0C000F8000
06001F0000
0380F80000
00FFC00000
ENDCHAR
STARTCHAR 00D8
ENCODING 216
SWIDTH 788 0
DWIDTH 41 0
BBX 37 33 15 0
BITMAP
000001F038
00003FFE60
0001F803C0
0007C001C0
001F8003E0
007E0006E0
00FC000C70
01F0001870
03E0003078
07C0006078
0F8000C078
1F80018078
1F00030078
3E000600F8
3E000C00F8
7C003800F8
7C007001F8
7800E001F0
F801C003F0
F8038003E0
F8070007E0
780E000FC0
781C000F80
7838001F00
7870003E00
38C0007C00
398000F800
1F0003E000
1E0007C000
0E001F0000
1B80FC0000
30FFE00000
6000000000
ENDCHAR
STARTCHAR 00D9
ENCODING 217
SWIDTH 692 0
DWIDTH 36 0
BBX 45 44 15 1
BITMAP
000007000000
000007000000
000007000000
000003800000
000001800000
000000C00000
000000600000
000000300000
000000080000
000000000000
000000000000
00FFFFC3FFF8
0007F0001E00
0007C0001800
000F80001000
000F80001000
001F00002000
003E00004000
003E00004000
007C00008000
00F800010000
00F800010000
01F000020000
03E000040000
03E000040000
07C000080000
0F8000100000
0F8000100000
1F0000200000
1E0000400000
3E0000400000
7C0000800000
7C0001000000
F80001000000
F80002000000
F00004000000
F00004000000
F00008000000
F00010000000
F00020000000
780040000000
3C0080000000
1E0300000000
07FC00000000
ENDCHAR
STARTCHAR 00DA
ENCODING 218
SWIDTH 692 0
DWIDTH 36 0
BBX 45 44 15 1
BITMAP
000000006000
000000006000
00000000E000
00000000E000
00000000C000
000000018000
000000030000
000000040000
000000080000
000000000000
000000000000
00FFFFC3FFF8
0007F0001E00
0007C0001800
000F80001000
000F80001000
001F00002000
003E00004000
003E00004000
007C00008000
00F800010000
00F800010000
01F000020000
03E000040000
03E000040000
07C000080000
0F8000100000
0F8000100000
1F0000200000
1E0000400000
3E0000400000
7C0000800000
7C0001000000
F80001000000
F80002000000
F00004000000
F00004000000
F00008000000
F00010000000
F00020000000
780040000000
3C0080000000
1E0300000000
07FC00000000
ENDCHAR
STARTCHAR 00DB
ENCODING 219
SWIDTH 692 0
DWIDTH 36 0
BBX 45 44 15 1
BITMAP
000000008000
000000018000
000000038000
000000078000
0000001D8000
00000030C000
00000060C000
000001804000
000000004000
000000000000
000000000000
00FFFFC3FFF8
0007F0001E00
0007C0001800
000F80001000
000F80001000
001F00002000
003E00004000
003E00004000
007C00008000
00F800010000
00F800010000
01F000020000
03E000040000
03E000040000
07C000080000
0F8000100000
0F8000100000
1F0000200000
1E0000400000
3E0000400000
7C0000800000
7C0001000000
F80001000000
F80002000000
F00004000000
F00004000000
F00008000000
F00010000000
F00020000000
780040000000
3C0080000000
1E0300000000
07FC00000000
ENDCHAR
STARTCHAR 00DC
ENCODING 220
SWIDTH 692 0
DWIDTH 36 0
BBX 45 39 15 1
BITMAP
000000E18000
000000E38000
000000C38000
000000820000
000000000000
000000000000
00FFFFC3FFF8
0007F0001E00
0007C0001800
000F80001000
000F80001000
001F00002000
003E00004000
003E00004000
007C00008000
00F800010000
00F800010000
01F000020000
03E000040000
03E000040000
07C000080000
0F8000100000
0F8000100000
1F0000200000
1E0000400000
3E0000400000
7C0000800000
7C0001000000
F80001000000
F80002000000
F00004000000
F00004000000
F00008000000
F00010000000
F00020000000
780040000000
3C0080000000
1E0300000000
07FC00000000
ENDCHAR
STARTCHAR 00DF
ENCODING 223
SWIDTH 500 0
DWIDTH 26 0
BBX 35 31 3 -4
BITMAP
0000000FC0
0000003C60
000000F060
000003C060
00000780C0
00000F0380
00001E0700
00003C1C00
0000787000
0000F0C000
0000E18000
0001E10000
0001C30000
003F830000
0003870000
0007070000
0007070000
000E070000
001E078000
001C078000
0038078000
0078078000
0070038000
00F0038000
00E0038000
01E0038000
FFC8070000
0008070000
0004060000
00021C0000
0001F00000
ENDCHAR
STARTCHAR 00E0
ENCODING 224
SWIDTH 461 0
DWIDTH 24 0
BBX 26 26 6 1
BITMAP
00300000
00380000
00380000
00180000
000C0000
00060000
00020000
00018000
00000000
00000000
00000000
003F3C00
01F17800
03C0F000
0F81F000
1F01E000
3E03C000
7C03C000
78078040
F80F0080
F01F0100
F02E0200
E04E0400
608C1800
730E6000
0C078000
ENDCHAR
STARTCHAR 00E1
ENCODING 225
SWIDTH 461 0
DWIDTH 24 0
BBX 26 27 6 1
BITMAP
00001800
00003800
00003800
00003000
00007000
00006000
00008000
00010000
00020000
00000000
00000000
00000000
003F3C00
01F17800
03C0F000
0F81F000
1F01E000
3E03C000
7C03C000
78078040
F80F0080
F01F0100
F02E0200
E04E0400
608C1800
730E6000
0C078000
ENDCHAR
STARTCHAR 00E2
ENCODING 226
SWIDTH 461 0
DWIDTH 24 0
BBX 26 27 6 0
BITMAP
00000800
00001800
00003800
00007800
0000F800
00018800
00070C00
000C0C00
00300400
00000000
00000000
00000000
003F3C00
01F17800
03C0F000
0F81F000
1F01E000
3E03C000
7C03C000
78078040
F80F0080
F01F0100
F02E0200
E04E0400
608C1800
730E6000
0C078000
ENDCHAR
STARTCHAR 00E3
ENCODING 227
SWIDTH 461 0
DWIDTH 24 0
BBX 26 22 6 1
BITMAP
00010100
0007E300
0006FE00
00083C00
00080000
00000000
00000000
003F3C00
01F17800
03C0F000
0F81F000
1F01E000
3E03C000
7C03C000
78078040
F80F0080
F01F0100
F02E0200
E04E0400
608C1800
730E6000
0C078000
ENDCHAR
STARTCHAR 00E4
ENCODING 228
SWIDTH 461 0
DWIDTH 24 0
BBX 25 22 6 0
BITMAP
00041000
000E3800
000E3800
000C3000
00000000
00000000
00000000
003E3800
01F17000
03C0F000
0F81E000
1F01C000
3E03C000
7C038000
78078080
F80F0100
F01E0200
F02E0400
E04E0800
E08C1000
730E6000
0C078000
ENDCHAR
STARTCHAR 00E5
ENCODING 229
SWIDTH 461 0
DWIDTH 24 0
BBX 25 27 6 0
BITMAP
0001E000
00063000
00041800
00080800
00080800
00080800
000C1800
00063000
0003C000
00000000
00000000
00000000
003E7800
00F1F000
03C0E000
0F81E000
1F01C000
3E038000
3C038000
78070080
780E0100
F01E0200
F02C0400
E04C0800
608C3000
730CC000
0C070000
ENDCHAR
STARTCHAR 00E6
ENCODING 230
SWIDTH 557 0
DWIDTH 29 0
BBX 30 15 6 1
BITMAP
007F07E0
01E1D870
0001F070
0301E0E0
1FE1C0C0
3F3B8180
7C0F8600
78077804
F00F8008
F01F0010
E02F0060
E04F0080
E1870300
7603CC00
08003000
ENDCHAR
STARTCHAR 00E7
ENCODING 231
SWIDTH 346 0
DWIDTH 18 0
BBX 19 24 4 -8
BITMAP
000780
003E40
00F8E0
01E1E0
03C0C0
078000
0F0000
0F0000
1E0020
1C0040
1C0080
1C0100
1C0400
1C1800
0FE000
020000
020000
058000
00C000
008000
008000
010000
860000
780000
ENDCHAR
STARTCHAR 00E8
ENCODING 232
SWIDTH 326 0
DWIDTH 17 0
BBX 18 27 6 1
BITMAP
030000
038000
038000
018000
00C000
004000
002000
001000
000800
000000
000000
000000
007E00
018F00
070F00
0E0E00
1C0C00
381800
78E000
770040
F80080
E00100
E00600
F00800
703000
3DC000
020000
ENDCHAR
STARTCHAR 00E9
ENCODING 233
SWIDTH 326 0
DWIDTH 17 0
BBX 19 26 6 1
BITMAP
0000E0
0000E0
0000C0
0001C0
000180
000300
000600
000800
001000
000000
000000
007E00
018F00
070F00
0E0E00
1C0C00
381800
78E000
770040
F80080
E00100
E00600
F00800
703000
3DC000
020000
ENDCHAR
STARTCHAR 00EA
ENCODING 234
SWIDTH 326 0
DWIDTH 17 0
BBX 18 27 6 0
BITMAP
000080
000180
000380
000780
000F80
001880
0070C0
00C0C0
030040
000000
000000
000000
007E00
018F00
070F00
0E0E00
1C0C00
381800
78E000
770040
F80080
E00100
E00600
F00800
703000
3DC000
020000
ENDCHAR
STARTCHAR 00EB
ENCODING 235
SWIDTH 326 0
DWIDTH 17 0
BBX 19 22 6 0
BITMAP
001040
0038E0
0070E0
0030C0
000000
000000
000000
007E00
018F00
070F00
0E0E00
1C0C00
381800
78E000
770040
F80080
E00100
E00600
F00800
703000
3DC000
020000
ENDCHAR
STARTCHAR 00EC
ENCODING 236
SWIDTH 326 0
DWIDTH 17 0
BBX 16 26 3 1
BITMAP
0060
0070
0070
0030
0010
0008
0004
0002
0000
0000
0000
0000
01FF
0007
0007
000F
000E
001E
003C
0038
0078
0070
00F0
01E0
03E0
FFFE
ENDCHAR
STARTCHAR 00ED
ENCODING 237
SWIDTH 326 0
DWIDTH 17 0
BBX 22 26 3 1
BITMAP
00001C
00001C
000038
000038
000030
000060
000080
000100
000200
000000
000000
000000
01FF00
000700
000700
000F00
000E00
001E00
003C00
003800
007800
007000
00F000
01E000
03E000
FFFE00
ENDCHAR
STARTCHAR 00EE
ENCODING 238
SWIDTH 326 0
DWIDTH 17 0
BBX 20 26 3 1
BITMAP
000020
000060
0000E0
0003E0
000760
000C20
001030
006030
000010
000000
000000
000000
01FF00
000700
000700
000F00
000E00
001E00
003C00
003800
007800
007000
00F000
01E000
03E000
FFFE00
ENDCHAR
STARTCHAR 00EF
ENCODING 239
SWIDTH 326 0
DWIDTH 17 0
BBX 21 21 3 1
BITMAP
000E38
000E38
000C30
000820
000000
000000
000000
01FF00
000700
000700
000F00
000E00
001E00
003C00
003800
007800
007000
00F000
01E000
03E000
FFFE00
ENDCHAR
STARTCHAR 00F1
ENCODING 241
SWIDTH 500 0
DWIDTH 26 0
BBX 36 33 -5 -11
BITMAP
0000000020
0000007820
000000FFC0
0000018FC0
0000010100
0000000000
0000000000
0000000380
0001FF0CE0
0000073060
0000074070
00000F8070
00000F00F0
00001E00F0
00003C00E0
00003801E0
00007803E0
00007003C0
0000F007C0
0001E00780
0003E00F00
00FFFC1E00
0000003C00
0000007800
000000F000
000001E000
000003C000
0000070000
00001E0000
C000380000
6000E00000
1C07000000
07F8000000
ENDCHAR
STARTCHAR 00F2
ENCODING 242
SWIDTH 403 0
DWIDTH 21 0
BBX 19 28 7 0
BITMAP
008000
01C000
01C000
00C000
00E000
006000
003000
000800
000400
000200
000000
000000
003E00
01E180
0780C0
1F00E0
3E00E0
7C00E0
7801E0
F001E0
F003C0
E003C0
E00780
E00F00
E01E00
607800
3BE000
040000
ENDCHAR
STARTCHAR 00F3
ENCODING 243
SWIDTH 403 0
DWIDTH 21 0
BBX 19 27 7 1
BITMAP
000060
0000E0
0000E0
0000C0
000180
000100
000200
000C00
000000
000000
000000
003E00
01E180
0780C0
1F00E0
3E00E0
7C00E0
7801E0
F001E0
F003C0
E003C0
E00780
E00F00
E01E00
607800
3BE000
040000
ENDCHAR
STARTCHAR 00F4
ENCODING 244
SWIDTH 403 0
DWIDTH 21 0
BBX 20 27 7 1
BITMAP
000060
0000E0
0001E0
0003E0
000660
001C60
003060
00C020
010010
000000
000000
003E00
01E180
0780C0
1F00E0
3E00E0
7C00E0
7801E0
F001E0
F003C0
E003C0
E00780
E00F00
E01E00
607800
3BE000
040000
ENDCHAR
STARTCHAR 00F5
ENCODING 245
SWIDTH 403 0
DWIDTH 21 0
BBX 20 23 7 0
BITMAP
000010
003C10
007FE0
0087E0
008080
000000
000000
003E00
01E180
0780C0
1F00E0
3E00E0
7C00E0
7801E0
F001E0
F003C0
E003C0
E00780
E00F00
E01E00
607800
3BE000
040000
ENDCHAR
STARTCHAR 00F6
ENCODING 246
SWIDTH 403 0
DWIDTH 21 0
BBX 19 22 7 1
BITMAP
001860
0038E0
0038E0
001040
000000
000000
003E00
01E180
0780C0
1F00E0
3E00E0
7C00E0
7801E0
F001E0
F003C0
E003C0
E00780
E00F00
E01E00
607800
3BE000
040000
ENDCHAR
STARTCHAR 00F7
ENCODING 247
SWIDTH 557 0
DWIDTH 29 0
BBX 23 21 2 2
BITMAP
003800
007C00
007C00
007C00
007C00
003800
000000
000000
000000
FFFFFE
FFFFFE
FFFFFE
000000
000000
000000
003800
007C00
007C00
007C00
007C00
003800
ENDCHAR
STARTCHAR 00F8
ENCODING 248
SWIDTH 403 0
DWIDTH 21 0
BBX 19 15 7 0
BITMAP
001FE0
01FFC0
07E2C0
1F84E0
3E08E0
7C11E0
7821E0
F0C3E0
F183C0
E307C0
E60F80
EC3E00
F87C00
71F000
FF0000
ENDCHAR
STARTCHAR 00F9
ENCODING 249
SWIDTH 519 0
DWIDTH 27 0
BBX 27 26 8 1
BITMAP
01C00000
01C00000
01C00000
00C00000
00600000
00300000
00180000
00040000
00000000
00000000
00000000
0E000000
F3803800
03807800
03807000
0780E000
0F01C020
1E03C040
1C078080
3C0F0080
781F0100
702E0200
704E0400
608E1800
73066000
0C038000
ENDCHAR
STARTCHAR 00FA
ENCODING 250
SWIDTH 519 0
DWIDTH 27 0
BBX 27 26 8 1
BITMAP
00001800
00003800
00003800
00003000
00006000
00004000
00008000
00030000
00000000
00000000
00000000
0E000000
F3803800
03807800
03807000
0780E000
0F01C020
1E03C040
1C078080
3C0F0080
781F0100
702E0200
704E0400
608E1800
73066000
0C038000
ENDCHAR
STARTCHAR 00FB
ENCODING 251
SWIDTH 519 0
DWIDTH 27 0
BBX 27 26 8 1
BITMAP
00002000
00006000
0000E000
0003E000
00076000
000C3000
00303000
00401000
00001000
00000000
00000000
0E000000
F3803800
03807800
03807000
0780E000
0F01C020
1E03C040
1C078080
3C0F0080
781F0100
702E0200
704E0400
608E1800
73066000
0C038000
ENDCHAR
STARTCHAR 00FC
ENCODING 252
SWIDTH 519 0
DWIDTH 27 0
BBX 27 21 8 1
BITMAP
00386000
0038E000
0038E000
00000000
00000000
00000000
0E000000
F3803800
03807800
03807000
0780E000
0F01C020
1E03C040
1C078080
3C0F0080
781F0100
702E0200
704E0400
608E1800
73066000
0C038000
ENDCHAR
STARTCHAR 00FF
ENCODING 255
SWIDTH 384 0
DWIDTH 20 0
BBX 65 39 -23 -18
BITMAP
0000000000C4000000
0000000001CE000000
0000000001DC000000
00000000018C01F800
0000000000000E0600
000000000000300180
00000001FFC0400080
000000003C01800000
000000003802000000
000000003804000000
000000003808000000
000000003810000000
000000003820000000
000000003840000000
0000000038C0000000
000000003980000000
000000003900000000
000000003A00000000
000000003E00000000
000000003C00000000
000000003800000000
000000003000000000
000000002000000000
000000002000000000
000000004000000000
000000008000000000
000000010000000000
000000010000000000
000000020000000000
000000040000000000
800000080000000000
800000100000000000
400000200000000000
200000400000000000
300000800000000000
180003000000000000
06000C000000000000
038070000000000000
007F80000000000000
ENDCHAR
STARTCHAR 0131
ENCODING 305
SWIDTH 326 0
DWIDTH 17 0
BBX 16 14 3 1
BITMAP
01FF
0007
0007
000F
000E
001E
003C
0038
0078
0070
00F0
01E0
03E0
FFFE
ENDCHAR
STARTCHAR 0152
ENCODING 338
SWIDTH 1038 0
DWIDTH 54 0
BBX 57 33 16 0
BITMAP
000007FFFFFFFF80
00007C1FF8003F00
0003E007F0000E00
000F8003F0000E00
003E0003E0000C00
007C0003C0000800
01F80007C0001800
03F0000780041000
07E0000F00042000
0FC0001F00082000
1F80001E00104000
1F00003C00300000
3E00007C00E00000
7E0000F803C00000
7C0000FFFFC00000
7C0001F01F800000
F80003E007800000
F80003E007000000
F80007C006000000
F0000F8006000000
F0000F8004000000
F0001F0008020000
F0003E0008040000
F0003E0010040000
F0007C0000080000
7000F80000180000
7001F80000300000
7001F00000600000
3803E00001E00000
1807E00007C00000
0C0FC0001F800000
07BF8000FF800000
00FFFFFFFF000000
ENDCHAR
STARTCHAR 0153
ENCODING 339
SWIDTH 673 0
DWIDTH 35 0
BBX 32 15 3 1
BITMAP
007F01F8
03C1C71C
0F00CC1C
1E00F81C
3C00F038
7800F060
7801E1C0
F001EE01
F003F002
E007C004
E00FC008
E01FC030
607DE0C0
31F0F300
0E000C00
ENDCHAR
STARTCHAR 0178
ENCODING 376
SWIDTH 634 0
DWIDTH 33 0
BBX 98 61 -10 -13
BITMAP
00000000000000000000018000
000000000000000000003E7C00
00000000000000000000C00300
00000000000000300003000080
00000000000000380004000040
00000000000000700018000040
00000000000000700020000000
000000000000006000C0000000
00000000000000C00100000000
00000000000001800200000000
00000000000002000400000000
00000000000004001800000000
00000000000000002000000000
00000000000000004000000000
000000007FFFC0008000000000
0000000007E000010000000000
0000000003C000020000000000
0000000003C000040000000000
0000000003C000080000000000
0000000003C000100000000000
0000000003C000200000000000
0000000003C000400000000000
0000000003C000400000000000
0000000003C000800000000000
0000000003C001000000000000
0000000003C002000000000000
0000000003C004000000000000
0000000003C008000000000000
0000000003C010000000000000
0000000003C020000000000000
0000000003C040000000000000
0000000003C080000000000000
0000000003C080000000000000
0000000003C100000000000000
0000000003C200000000000000
0000000003C400000000000000
0000000003C800000000000000
0000000003D000000000000000
0000000003E000000000000000
0000000003C000000000000000
0000000003C000000000000000
00000000038000000000000000
00000000030000000000000000
00000000020000000000000000
00000000040000000000000000
00000000080000000000000000
00000000100000000000000000
00000000200000000000000000
00000000400000000000000000
00000000800000000000000000
00000001000000000000000000
00000002000000000000000000
0000000C000000000000000000
00000010000000000000000000
80000020000000000000000000
800000C0000000000000000000
40000100000000000000000000
20000400000000000000000000
18001800000000000000000000
0601C000000000000000000000
01FE0000000000000000000000
ENDCHAR
STARTCHAR 0192
ENCODING 402
SWIDTH 403 0
DWIDTH 21 0
BBX 91 59 -33 -21
BITMAP
0000000000000000001FE000
000000000000000000E01C00
000000000000000007800200
00000000000000000E000180
000000000000000038000040
000000000000000070000020
0000000000000000E0000000
0000000000000001C0000000
000000000000000380000000
000000000000000700000000
000000000000000E00000000
000000000000001C00000000
000000000000003800000000
000000000000007000000000
00000000000000F000000000
00000000000000E000000000
00000000000001C000000000
000000000000038000000000
000000000000078000000000
000000000000070000000000
0000000000000E0000000000
0000000000001E0000000000
0000000000003C0000000000
000000000000380000000000
00000000001FFFFF80000000
000000000000F00000000000
000000000000E00000000000
000000000001E00000000000
000000000003C00000000000
000000000003C00000000000
000000000007800000000000
000000000007000000000000
00000000000F000000000000
00000000001E000000000000
00000000001C000000000000
00000000003C000000000000
000000000078000000000000
000000000070000000000000
0000000000F0000000000000
0000000001E0000000000000
0000000001C0000000000000
000000000380000000000000
000000000780000000000000
000000000F00000000000000
000000001E00000000000000
000000001C00000000000000
000000003800000000000000
000000007000000000000000
00000000E000000000000000
00000001C000000000000000
000000038000000000000000
800000070000000000000000
8000000E0000000000000000
600000380000000000000000
300000700000000000000000
080001C00000000000000000
060007000000000000000000
01C03C000000000000000000
003FC0000000000000000000
ENDCHAR
STARTCHAR 02C6
ENCODING 710
SWIDTH 269 0
DWIDTH 14 0
BBX 12 9 35 34
BITMAP
0020
0060
00E0
01E0
03A0
0630
1C30
3030
C010
ENDCHAR
STARTCHAR 02DA
ENCODING 730
SWIDTH 692 0
DWIDTH 36 0
BBX 9 10 31 17
BITMAP
1E00
6300
4100
8080
8080
8080
8080
4100
6300
1C00
ENDCHAR
STARTCHAR 02DC
ENCODING 732
SWIDTH 288 0
DWIDTH 15 0
BBX 12 4 36 35
BITMAP
1810
7E30
6FE0
81C0
ENDCHAR
STARTCHAR 0394
ENCODING 916
SWIDTH 615 0
DWIDTH 32 0
BBX 30 35 1 1
BITMAP
00030000
00030000
00078000
00078000
000FC000
000FC000
000FC000
001FE000
001FE000
003BF000
003BF000
0031F000
0071F800
0071F800
00E0FC00
00E0FC00
00C07C00
01C07E00
01807E00
03803F00
03803F00
03001F00
07001F80
06001F80
0E000FC0
0E000FC0
0C0007E0
1C0007E0
180007E0
380003F0
380003F0
300001F8
700001F8
7FFFFFF8
FFFFFFFC
ENDCHAR
STARTCHAR 03A9
ENCODING 937
SWIDTH 769 0
DWIDTH 40 0
BBX 33 35 3 1
BITMAP
001FFC0000
00FFFF8000
03F80FE000
07E001F000
0F8000F800
1F00007C00
3F00003E00
7E00003F00
7C00001F00
7C00001F00
FC00000F80
FC00000F80
FC00000F80
FC00000F80
FC00000F80
FC00000F80
FC00000F80
FC00000F80
7C00001F00
7E00001F00
3E00003E00
3F00003E00
1F80007C00
0FC000F800
07E001F000
01FC0FC000
807E1F0080
8006180080
8006180080
C006180180
FFFE1FFF80
FFFE1FFF80
FFFE1FFF80
FFFE1FFF80
FFFE1FFF80
ENDCHAR
STARTCHAR 03C0
ENCODING 960
SWIDTH 557 0
DWIDTH 29 0
BBX 26 23 1 0
BITMAP
0FFFFFC0
3FFFFFC0
7FFFFF00
E180F000
C180F000
0180F000
0180F000
0180F000
0180F000
0180F000
0180F000
0180F000
0180F000
0380F000
0380F040
0380F040
8380F040
8780F040
FF00F0C0
FF007080
FF007F80
7E007F00
3C001E00
ENDCHAR
STARTCHAR 2013
ENCODING 8211
SWIDTH 307 0
DWIDTH 16 0
BBX 14 5 7 5
BITMAP
0004
0008
3FF0
7FF0
8000
ENDCHAR
STARTCHAR 2014
ENCODING 8212
SWIDTH 403 0
DWIDTH 21 0
BBX 18 4 8 6
BITMAP
0000C0
3FFF80
7FFF00
800000
ENDCHAR
STARTCHAR 2018
ENCODING 8216
SWIDTH 153 0
DWIDTH 8 0
BBX 4 5 24 27
BITMAP
10
60
E0
E0
C0
ENDCHAR
STARTCHAR 2019
ENCODING 8217
SWIDTH 153 0
DWIDTH 8 0
BBX 4 5 23 27
BITMAP
30
70
70
60
C0
ENDCHAR
STARTCHAR 201C
ENCODING 8220
SWIDTH 211 0
DWIDTH 11 0
BBX 9 5 23 27
BITMAP
1980
2200
E600
EE00
EE00
ENDCHAR
STARTCHAR 201D
ENCODING 8221
SWIDTH 211 0
DWIDTH 11 0
BBX 9 5 23 27
BITMAP
3300
7F80
7700
2200
CC00
ENDCHAR
STARTCHAR 2022
ENCODING 8226
SWIDTH 153 0
DWIDTH 8 0
BBX 3 3 9 7
BITMAP
60
E0
60
ENDCHAR
STARTCHAR 2044
ENCODING 8260
SWIDTH 634 0
DWIDTH 33 0
BBX 98 61 -10 -13
BITMAP
00000000000000000000018000
000000000000000000003E7C00
00000000000000000000C00300
00000000000000000003000080
00000000000000000004000040
00000000000000000018000040
00000000000000000020000000
000000000000000000C0000000
0000000000000C300100000000
0000000000001C700200000000
0000000000001C700400000000
00000000000018601800000000
00000000000000002000000000
00000000000000004000000000
000000007FFFC0008000000000
0000000007E000010000000000
0000000003C000020000000000
0000000003C000040000000000
0000000003C000080000000000
0000000003C000100000000000
0000000003C000200000000000
0000000003C000400000000000
0000000003C000400000000000
0000000003C000800000000000
0000000003C001000000000000
0000000003C002000000000000
0000000003C004000000000000
0000000003C008000000000000
0000000003C010000000000000
0000000003C020000000000000
0000000003C040000000000000
0000000003C080000000000000
0000000003C080000000000000
0000000003C100000000000000
0000000003C200000000000000
0000000003C400000000000000
0000000003C800000000000000
0000000003D000000000000000
0000000003E000000000000000
0000000003C000000000000000
0000000003C000000000000000
00000000038000000000000000
00000000030000000000000000
00000000020000000000000000
00000000040000000000000000
00000000080000000000000000
00000000100000000000000000
00000000200000000000000000
00000000400000000000000000
00000000800000000000000000
00000001000000000000000000
00000002000000000000000000
0000000C000000000000000000
00000010000000000000000000
80000020000000000000000000
800000C0000000000000000000
40000100000000000000000000
20000400000000000000000000
18001800000000000000000000
0601C000000000000000000000
01FE0000000000000000000000
ENDCHAR
STARTCHAR 2202
ENCODING 8706
SWIDTH 500 0
DWIDTH 26 0
BBX 19 33 3 0
BITMAP
01F800
03FE00
07E300
07C100
078180
0000C0
0000C0
0000C0
0000E0
0000E0
0000E0
0000E0
0000E0
01F0E0
07FCE0
1E02E0
1C02E0
3801E0
7800E0
7000E0
F000C0
E000C0
E000C0
E000C0
E00080
E00180
E00100
600100
600200
700400
300800
181000
07E000
ENDCHAR
STARTCHAR 220F
ENCODING 8719
SWIDTH 826 0
DWIDTH 43 0
BBX 41 50 1 -11
BITMAP
FFFFFFFFFF80
FFFFFFFFFF80
07C00001F000
07C00001F000
07C00001F000
07C00001F000
07C00001F000
07C00001F000
07C00001F000
07C00001F000
07C00001F000
07C00001F000
07C00001F000
07C00001F000
07C00001F000
07C00001F000
07C00001F000
07C00001F000
07C00001F000
07C00001F000
07C00001F000
07C00001F000
07C00001F000
07C00001F000
07C00001F000
07C00001F000
07C00001F000
07C00001F000
07C00001F000
07C00001F000
07C00001F000
07C00001F000
07C00001F000
07C00001F000
07C00001F000
07C00001F000
07C00001F000
07C00001F000
07C00001F000
07C00001F000
07C00001F000
07C00001F000
07C00001F000
07C00001F000
07C00001F000
07C00001F000
07C00001F000
07C00001F000
FFFC001FFF80
FFFC001FFF80
ENDCHAR
STARTCHAR 2211
ENCODING 8721
SWIDTH 711 0
DWIDTH 37 0
BBX 32 50 2 -10
BITMAP
7FFFFFF8
3FFFFFF8
1F8007FC
1FC001FC
0FC0007C
07E0003C
07F0003C
03F8001C
01F8000E
00FC000E
00FE000E
007F0006
003F0000
001F8000
001FC000
000FC000
0007E000
0003F000
0003F800
0001F800
0000FC00
00007E00
00007F00
00003F00
00001F80
00001F00
00000E00
00001C00
00003800
00007800
00007000
0000E000
0001C000
00038000
00070000
000E0000
001C0000
001C0003
00380003
00700007
00E00007
01C0000E
0380001E
0700003E
060001FE
0FFFFFFE
1FFFFFFC
3FFFFFFC
7FFFFFF8
FFFFFFE0
ENDCHAR
STARTCHAR 221A
ENCODING 8730
SWIDTH 269 0
DWIDTH 14 0
BBX 11 8 7 18
BITMAP
8020
C0C0
C300
4600
7C00
7800
6000
4000
ENDCHAR
STARTCHAR 221E
ENCODING 8734
SWIDTH 384 0
DWIDTH 20 0
BBX 65 45 -23 -18
BITMAP
000000000000200000
000000000000600000
000000000000E00000
000000000000E00000
000000000000C00000
000000000001800000
000000000001000000
000000000002000000
00000000000C000000
00000000000001F800
0000000000000E0600
000000000000300180
00000001FFE0400080
000000003C01800000
000000003802000000
000000003804000000
000000003808000000
000000003810000000
000000003820000000
000000003840000000
0000000038C0000000
000000003980000000
000000003900000000
000000003A00000000
000000003E00000000
000000003C00000000
000000003800000000
000000003000000000
000000002000000000
000000002000000000
000000004000000000
000000008000000000
000000010000000000
000000010000000000
000000020000000000
000000040000000000
800000080000000000
800000100000000000
400000200000000000
200000400000000000
300000800000000000
180003000000000000
06000C000000000000
038070000000000000
007F80000000000000
ENDCHAR
STARTCHAR 222B
ENCODING 8747
SWIDTH 269 0
DWIDTH 14 0
BBX 22 49 -4 -10
BITMAP
0000F0
0003FC
0006FC
000C7C
000C3C
001C10
001C00
003C00
003800
003800
003800
003800
007800
007800
007800
007800
007800
007800
007800
007800
007800
007800
007800
007800
007800
007800
007800
007800
007800
007800
007800
007800
007800
007800
007800
007800
007800
007000
007000
007000
007000
007000
00E000
00E000
70C000
F8C000
FD8000
FF0000
7E0000
ENDCHAR
STARTCHAR 2248
ENCODING 8776
SWIDTH 557 0
DWIDTH 29 0
BBX 27 13 1 6
BITMAP
00000060
0FF800E0
7FFF83E0
FFFFFFE0
F80FFF80
E000FC00
80000060
07F000E0
3FFF03E0
FFFFFFE0
F81FFF80
E003FE00
80000000
ENDCHAR
STARTCHAR 2260
ENCODING 8800
SWIDTH 557 0
DWIDTH 29 0
BBX 24 22 2 1
BITMAP
00000C
00001E
00003E
00007C
0000F8
0001F0
FFFFFF
FFFFFF
FFFFFF
001F00
001E00
003C00
007800
FFFFFF
FFFFFF
FFFFFF
078000
0F0000
1E0000
3C0000
380000
100000
ENDCHAR
STARTCHAR 2264
ENCODING 8804
SWIDTH 557 0
DWIDTH 29 0
BBX 24 23 2 1
BITMAP
000003
00001F
0000FF
0007FF
003FF8
01FFC0
1FFE00
FFF000
FF8000
FE0000
FFE000
3FFC00
07FF80
00FFF0
000FFE
0001FF
00003F
000007
000000
FFFFFF
FFFFFF
FFFFFF
FFFFFF
ENDCHAR
STARTCHAR 2265
ENCODING 8805
SWIDTH 557 0
DWIDTH 29 0
BBX 24 23 2 1
BITMAP
C00000
FC0000
FF8000
FFF000
1FFE00
03FFC0
003FF8
0007FF
0000FF
00007F
0003FF
001FFC
00FFE0
07FF00
7FF800
FFC000
FE0000
F00000
000000
FFFFFF
FFFFFF
FFFFFF
FFFFFF
ENDCHAR
STARTCHAR 25CA
ENCODING 9674
SWIDTH 500 0
DWIDTH 26 0
BBX 25 54 0 -12
BITMAP
00080000
000C0000
001C0000
001E0000
003E0000
003F0000
00370000
00738000
00738000
00E1C000
00E1C000
01C0C000
01C0E000
0380E000
03807000
07007000
07003800
0E003800
0E001C00
0C001C00
1C000E00
18000E00
38000700
38000700
70000380
70000380
E0000380
E0000380
70000380
70000700
38000700
38000E00
1C000E00
1C000C00
0E001C00
0E001800
07003800
07003800
03007000
03807000
0380E000
01C0E000
01C1C000
00E1C000
00E38000
00738000
00730000
003F0000
003F0000
001E0000
001E0000
000C0000
000C0000
00080000
ENDCHAR
STARTCHAR F8FF
ENCODING 63743
SWIDTH 788 0
DWIDTH 41 0
BBX 34 42 3 0
BITMAP
000001C000
000003C000
000007C000
00000FC000
00001F8000
00001F8000
00003F0000
00003E0000
00003C0000
00F831F000
03FF0FFC00
0FFFFFFF00
1FFFFFFF80
3FFFFFFFC0
3FFFFFFF00
7FFFFFFE00
7FFFFFFC00
FFFFFFFC00
FFFFFFF800
FFFFFFF800
FFFFFFF800
FFFFFFF800
FFFFFFF800
FFFFFFF800
FFFFFFF800
FFFFFFF800
FFFFFFFC00
FFFFFFFE00
7FFFFFFE00
7FFFFFFF80
7FFFFFFFC0
3FFFFFFFC0
3FFFFFFFC0
1FFFFFFF80
1FFFFFFF80
0FFFFFFF00
0FFFFFFF00
07FFFFFE00
03FFFFFC00
01FFFFF800
00FF1FF000
003803C000
ENDCHAR
ENDFONT
